<svg width="17" height="17" viewBox="0 0 17 17" fill="none" xmlns="http://www.w3.org/2000/svg">
<path d="M16.3805 7.20029H15.7361V7.16709H8.53613V10.3671H13.0573C12.3977 12.2299 10.6253 13.5671 8.53613 13.5671C5.88533 13.5671 3.73613 11.4179 3.73613 8.76709C3.73613 6.11629 5.88533 3.96709 8.53613 3.96709C9.75973 3.96709 10.8729 4.42869 11.7205 5.18269L13.9833 2.91989C12.5545 1.58829 10.6433 0.76709 8.53613 0.76709C4.11813 0.76709 0.536133 4.34909 0.536133 8.76709C0.536133 13.1851 4.11813 16.7671 8.53613 16.7671C12.9541 16.7671 16.5361 13.1851 16.5361 8.76709C16.5361 8.23069 16.4809 7.70709 16.3805 7.20029Z" fill="#FFC107"/>
<path d="M1.4585 5.04349L4.0869 6.97109C4.7981 5.21029 6.5205 3.96709 8.5361 3.96709C9.7597 3.96709 10.8729 4.42869 11.7205 5.18269L13.9833 2.91989C12.5545 1.58829 10.6433 0.76709 8.5361 0.76709C5.4633 0.76709 2.7985 2.50189 1.4585 5.04349Z" fill="#FF3D00"/>
<path d="M8.53606 16.7671C10.6025 16.7671 12.4801 15.9763 13.8997 14.6903L11.4237 12.5951C10.5935 13.2264 9.57905 13.5679 8.53606 13.5671C6.45526 13.5671 4.68846 12.2403 4.02286 10.3887L1.41406 12.3987C2.73806 14.9895 5.42686 16.7671 8.53606 16.7671Z" fill="#4CAF50"/>
<path d="M16.3805 7.20044H15.7361V7.16724H8.53613V10.3672H13.0573C12.7418 11.2538 12.1735 12.0285 11.4225 12.5956L11.4237 12.5948L13.8997 14.69C13.7245 14.8492 16.5361 12.7672 16.5361 8.76724C16.5361 8.23084 16.4809 7.70724 16.3805 7.20044Z" fill="#1976D2"/>
</svg>
