<svg width="18" height="25" viewBox="0 0 18 25" fill="none" xmlns="http://www.w3.org/2000/svg">
<path d="M5.36514 11.9545C5.4676 13.6026 4.09662 15.8552 7.14598 16.2941C9.19515 19.3805 8.45353 21.8965 5.24317 22.5059C2.97933 22.9301 1.91572 21.3211 0.925293 19.6926C1.06678 18.0445 1.27658 16.4794 3.12083 15.7187C3.97465 15.3677 3.63799 14.4412 3.6575 13.7684C3.76972 9.96517 3.90146 6.16199 3.90634 2.35881C3.90634 0.564481 4.55524 0.189032 6.10676 0.920414C9.47325 2.5067 12.843 4.07837 16.216 5.6354C16.66 5.84018 17.1918 5.98646 17.1381 6.61057C17.0844 7.23469 16.6161 7.38096 16.1623 7.58575L14.3961 8.38052C12.9715 8.83885 11.4687 9.12166 10.1514 9.7994C8.59502 10.5893 6.56537 10.3796 5.36514 11.9545ZM3.8673 20.0729C3.47698 19.3902 4.03808 18.3858 3.12083 17.6739C2.47681 18.8344 2.49143 19.7072 3.47698 20.4532C4.74064 21.0529 5.91648 20.8579 6.62393 19.6682C7.24356 18.6345 6.53611 18.064 5.53104 17.7763C4.76016 18.42 5.83352 20.3605 3.8673 20.0729ZM10.0538 4.66022C9.78548 4.48469 9.52203 4.28965 9.24393 4.13362C5.56519 2.0955 5.56519 2.09551 5.52616 6.27902C5.52616 7.00065 5.52615 7.74177 5.48712 8.44877C5.43833 9.35081 5.90183 9.63849 6.6727 9.36056C8.79018 8.60968 10.9418 7.92706 12.9715 6.97626C14.5523 6.23025 13.03 6.13274 12.5909 5.84994L10.0538 4.66022Z" fill="#4F5D80"/>
<path d="M0.925785 19.6926C1.90158 21.3211 2.97982 22.9302 5.24366 22.506C8.45402 21.8965 9.19564 19.3805 7.14647 16.2941C7.22941 14.9532 8.17594 14.6266 9.19565 14.885C9.90981 15.0377 10.5612 15.4025 11.0644 15.9315C11.5676 16.4604 11.8991 17.129 12.0157 17.8495C12.3328 19.4488 11.6107 20.7751 10.552 21.7844C8.84434 23.4568 6.79517 24.5636 4.29226 24.5685C1.96987 24.5685 -0.0988064 22.5304 0.00365194 20.2728C0.0426837 19.7219 0.540346 19.7609 0.925785 19.6926Z" fill="#DEDEE5"/>
<path d="M5.36523 11.9545C6.56546 10.3796 8.59512 10.5893 10.1613 9.77502C11.4688 9.09728 12.9813 8.79985 14.406 8.35614C13.5424 10.5503 7.27779 13.0516 5.36523 11.9545Z" fill="#DEDEE5"/>
<path d="M12.5912 5.84995C13.0303 6.13276 14.5428 6.23027 12.9717 6.97628C10.9421 7.92708 8.79045 8.60969 6.67298 9.36058C5.9021 9.6385 5.4386 9.36058 5.48739 8.44879C5.52643 7.72716 5.52156 6.98604 5.52643 6.27903C5.56547 2.09553 5.56546 2.09552 9.24421 4.13363C9.52231 4.28966 9.78576 4.48471 10.0541 4.66024C9.2198 6.084 7.12673 5.98159 6.21924 8.01971C8.6636 7.63452 10.7811 7.24933 12.5912 5.84995Z" fill="white"/>
<path d="M12.5912 5.84993C10.7811 7.23956 8.688 7.6345 6.21924 8.01969C7.12185 5.98157 9.2198 6.06935 10.0541 4.66022L12.5912 5.84993Z" fill="#DEDEE5"/>
<path d="M3.86736 20.0728C5.81895 20.3605 4.77975 18.4199 5.53111 17.7762C6.53618 18.0639 7.24362 18.6344 6.62399 19.6681C5.91166 20.8578 4.7407 21.0528 3.47705 20.4531L3.86736 20.0728Z" fill="white"/>
<path d="M3.47724 20.4533C2.50144 19.7072 2.50145 18.8345 3.12108 17.674C4.03833 18.3859 3.47723 19.3903 3.86755 20.0729L3.47724 20.4533Z" fill="white"/>
</svg>
