<svg width="130" height="45" viewBox="0 0 130 45" fill="none" xmlns="http://www.w3.org/2000/svg">
<path d="M4.46326 16C4.23822 16 4.0882 15.925 4.0882 15.775V15.7375C4.0882 15.3811 4.78206 15.3624 4.78206 14.6873V3.49162H2.23163C1.27522 3.49162 1.1627 5.51697 0.618855 5.51697H0.450077C0.262545 5.51697 0.168779 5.40445 0.206285 5.1419L0.506336 3.09781C0.543843 2.83526 0.675115 2.68524 0.975166 2.68524H10.2955C10.5956 2.68524 10.7268 2.83526 10.7831 3.09781L11.1957 5.16066C11.2519 5.40445 11.1394 5.51697 10.9706 5.51697H10.7831C10.2392 5.51697 9.99545 3.49162 9.05779 3.49162H6.46985V14.6873C6.46985 15.3624 7.20122 15.3811 7.20122 15.7375V15.775C7.20122 15.925 7.0512 16 6.80741 16H4.46326ZM20.9173 14.6498C20.9735 15.3249 21.5924 15.3436 21.5924 15.6999V15.775C21.5924 15.925 21.4424 16 21.2173 16H18.9669C18.7419 16 18.5919 15.925 18.5919 15.775V15.6999C18.5919 15.3436 19.3045 15.3249 19.267 14.6685L19.0795 10.8429C18.9857 8.63 18.0668 7.54231 16.7728 7.54231C15.3851 7.54231 14.4287 8.64875 14.4287 10.1303V14.6873C14.4287 15.3436 15.1788 15.3249 15.1788 15.6999V15.7562C15.1788 15.9062 15.01 16 14.785 16H12.4408C12.2158 16 12.0845 15.9062 12.0845 15.7562V15.6999C12.0845 15.3249 12.7784 15.3436 12.7784 14.6873V4.09172C12.7784 3.36035 12.0658 3.32284 12.0658 3.02279V2.96653C12.0658 2.81651 12.1595 2.72274 12.3283 2.64773L13.8661 1.97261C14.2036 1.80384 14.4099 1.93511 14.4099 2.21641L14.3724 8.29244C14.9538 7.39229 15.9664 6.81094 17.1666 6.81094C19.0045 6.81094 20.5422 8.04865 20.711 10.8804L20.9173 14.6498ZM30.3194 13.3558C30.4881 13.0933 30.9195 13.1495 30.8632 13.5058C30.6382 14.631 29.4005 16.1875 27.0563 16.1875C24.6371 16.1875 22.7056 14.3497 22.7056 11.4242C22.7056 8.78002 24.6371 6.81094 27.1313 6.81094C29.3817 6.81094 30.6194 8.29244 30.6194 9.58641C30.6194 10.1865 30.3006 10.5053 29.738 10.6928L24.5434 12.3994C24.9747 14.0122 26.1187 14.9873 27.6377 14.9873C29.0254 14.9873 29.9068 14.256 30.3194 13.3558ZM26.85 7.41104C25.331 7.41104 24.3371 8.91129 24.3371 10.8241C24.3371 11.1617 24.3559 11.4805 24.4121 11.7805L28.5941 10.2803C28.9129 10.149 29.0441 9.94272 29.0441 9.62392C29.0441 8.78002 28.144 7.41104 26.85 7.41104Z" fill="#4F5D80"/>
<path d="M51.224 14.631C51.3741 15.3624 51.9929 15.3811 51.9929 15.7375V15.775C51.9929 15.925 51.8429 16 51.5991 16H49.2925C49.0674 16 48.9174 15.925 48.9174 15.775V15.7375C48.9174 15.3811 49.6863 15.3624 49.5363 14.631L47.886 5.27318L44.1166 15.5874C44.0041 15.85 43.8915 15.9812 43.629 15.9812C43.3852 15.9812 43.2352 15.8687 43.1227 15.6062L39.3158 5.04814L37.703 14.631C37.5717 15.3436 38.4156 15.3811 38.4156 15.7375V15.775C38.4156 15.925 38.2656 16 38.0406 16H36.334C36.109 16 35.9589 15.925 35.9589 15.775V15.7375C35.9589 15.3811 36.5778 15.3436 36.7091 14.631L38.5281 4.03547C38.6407 3.3791 37.9093 3.36035 37.9093 2.96653V2.92903C37.9093 2.779 38.0218 2.68524 38.2281 2.68524H39.4658C39.8221 2.68524 40.0847 2.85401 40.1972 3.17282L43.854 13.7684L47.6234 3.15406C47.736 2.85401 47.9422 2.68524 48.2985 2.68524H49.63C49.78 2.68524 49.9113 2.76025 49.9113 2.89152V2.94778C49.9113 3.32284 49.1237 3.3791 49.2737 4.18549L51.224 14.631ZM57.6524 16.1875C54.6707 16.1875 52.7578 13.9184 52.7578 11.368C52.7578 8.76127 54.7457 6.81094 57.3149 6.81094C60.1279 6.81094 62.0782 8.9488 62.0782 11.5742C62.0782 14.1622 60.2966 16.1875 57.6524 16.1875ZM57.8775 15.5687C59.3402 15.5687 60.4279 14.2372 60.4279 12.1368C60.4279 9.5114 59.0402 7.42979 57.1273 7.42979C55.5333 7.42979 54.4269 8.74252 54.4269 10.8429C54.4269 13.2433 55.8146 15.5687 57.8775 15.5687ZM71.8454 6.99847C72.0142 6.99847 72.1267 7.07348 72.1267 7.20475V7.26101C72.1267 7.61732 71.414 7.69234 71.1703 8.31119L68.2073 15.6249C68.1135 15.8687 67.9635 16 67.7197 16H67.1383C66.8758 16 66.7445 15.8687 66.632 15.6249L63.2752 8.31119C62.9751 7.69234 62.4688 7.61732 62.4688 7.26101V7.20475C62.4688 7.07348 62.5813 6.99847 62.7501 6.99847H65.3568C65.5068 6.99847 65.6193 7.09223 65.6193 7.22351V7.27977C65.6193 7.56106 64.8879 7.72984 65.113 8.32995L67.7572 14.8185L70.3264 8.49872C70.6452 7.63608 69.67 7.61732 69.67 7.27977V7.22351C69.67 7.07348 69.7825 6.99847 69.9513 6.99847H71.8454ZM74.2963 5.21692C73.5274 5.21692 73.0399 4.74809 73.0399 4.05422C73.0399 3.36035 73.5274 2.87277 74.2963 2.87277C75.0277 2.87277 75.5153 3.36035 75.5153 4.05422C75.5153 4.74809 75.0277 5.21692 74.2963 5.21692ZM73.2086 16C72.9836 16 72.8523 15.9062 72.8523 15.7562V15.6812C72.8523 15.3249 73.5274 15.3249 73.5274 14.6685V9.08007C73.5274 8.3487 72.8523 8.19867 72.8523 7.91738V7.87987C72.8523 7.7486 72.9649 7.69234 73.1336 7.59857L74.5776 6.88595C74.9714 6.69842 75.159 6.88595 75.159 7.14849V14.6685C75.159 15.3249 75.9091 15.3249 75.9091 15.6812V15.7562C75.9091 15.9062 75.7403 16 75.5153 16H73.2086ZM86.2452 14.6498C86.2827 15.3436 86.9203 15.3436 86.9203 15.6999V15.775C86.9203 15.925 86.7703 16.0188 86.5265 16.0188H84.2949C84.0511 16.0188 83.901 15.925 83.901 15.775V15.6999C83.901 15.3436 84.6137 15.3436 84.5762 14.6685L84.3886 10.9179C84.2949 8.63 83.376 7.54231 82.082 7.54231C80.6942 7.54231 79.7378 8.64875 79.7378 10.1303V14.6873C79.7378 15.3436 80.488 15.3436 80.488 15.6999V15.775C80.488 15.925 80.3379 16.0188 80.0941 16.0188H77.75C77.525 16.0188 77.3749 15.925 77.3749 15.775V15.6999C77.3749 15.3436 78.1063 15.3436 78.1063 14.6873V9.00506C78.1063 8.19867 77.3187 8.23618 77.3187 7.89862V7.84236C77.3187 7.71109 77.4312 7.63608 77.6187 7.56106L79.0252 6.88595C79.3815 6.69842 79.5503 6.88595 79.5503 7.16725V8.53623C80.0941 7.48605 81.1818 6.81094 82.4758 6.81094C84.3136 6.81094 85.8514 8.04865 86.0389 10.9554L86.2452 14.6498ZM96.076 6.99847C96.7136 6.99847 96.8261 7.27977 96.6011 7.4673C96.2635 7.82361 95.6259 7.7486 95.0633 7.89862C95.8697 8.49872 96.376 9.53015 96.376 10.4866C96.376 12.0431 95.5134 13.262 94.1256 13.8621C95.7572 14.2184 96.5635 15.1186 96.5635 16.225C96.5635 17.9691 94.7445 19.038 92.2128 19.038C89.3248 19.038 87.9371 17.3877 87.9371 16.1875C87.9371 15.8125 88.1434 15.4749 88.6309 15.4749C89.7936 15.4749 89.1935 18.4192 92.3253 18.4379C93.8631 18.4379 94.8945 17.594 94.8945 16.3376C94.8945 15.1374 94.0881 14.3122 92.8129 14.1997C92.5691 14.2184 92.3441 14.2372 92.1003 14.2372C89.8499 14.2372 88.0871 12.6244 88.0871 10.5991C88.0871 8.40496 89.7374 6.81094 92.2316 6.81094C93.5068 6.81094 93.7131 6.99847 96.076 6.99847ZM92.4003 13.6183C93.8443 13.6183 94.7445 12.5119 94.7445 11.0679C94.7445 9.11758 93.6005 7.41104 91.9315 7.41104C90.5813 7.41104 89.7186 8.49872 89.7186 9.92397C89.7186 11.9306 90.8813 13.6183 92.4003 13.6183Z" fill="#FF8D00"/>
<mask id="path-2-outside-1_136_12318" maskUnits="userSpaceOnUse" x="0" y="18.2304" width="130" height="27" fill="black">
<rect fill="white" y="18.2304" width="130" height="27"/>
<path d="M9.59335 38.4897C5.03003 38.4897 0.855623 33.9782 0.855623 28.8445C0.855623 23.3996 4.48554 19.5882 9.46371 19.5882C13.5603 19.5882 16.542 22.518 16.542 24.3849C16.542 25.059 16.1272 25.4998 15.4012 25.4998C13.4566 25.4998 13.6122 20.6512 8.86737 20.6512C5.85972 20.6512 3.18914 23.4514 3.18914 27.5481C3.18914 32.7855 6.58571 36.4154 10.2416 36.4154C13.3529 36.4154 15.1419 34.0301 15.9457 32.1114C16.2568 31.5928 17.0606 31.6965 16.905 32.4485C16.3346 35.508 13.8974 38.4897 9.59335 38.4897ZM25.1951 38.4897C21.0726 38.4897 18.4279 35.3524 18.4279 31.8262C18.4279 28.2222 21.1763 25.5257 24.7284 25.5257C28.6176 25.5257 31.3141 28.4815 31.3141 32.1114C31.3141 35.6895 28.851 38.4897 25.1951 38.4897ZM25.5062 37.634C27.5286 37.634 29.0324 35.7932 29.0324 32.8892C29.0324 29.2593 27.1138 26.3813 24.4691 26.3813C22.2652 26.3813 20.7355 28.1963 20.7355 31.1002C20.7355 34.419 22.6542 37.634 25.5062 37.634ZM54.0122 36.3895C54.0641 37.3229 54.9716 37.3748 54.9716 37.8415V37.9452C54.9716 38.1526 54.7382 38.2563 54.453 38.2563H51.3416C51.0046 38.2563 50.8231 38.1526 50.8231 37.9452V37.8415C50.8231 37.3748 51.7565 37.3229 51.7306 36.4154L51.4713 31.3595C51.2898 27.8592 50.123 26.5369 48.2303 26.5369C46.5968 26.5369 45.2226 27.9888 45.1449 29.9594C45.2226 30.3483 45.2486 30.7891 45.2486 31.2298V36.4154C45.2486 37.3229 46.1561 37.3748 46.1561 37.8415V37.9452C46.1561 38.1526 45.9746 38.2563 45.6634 38.2563H42.6039C42.2669 38.2563 42.0594 38.1526 42.0594 37.9452V37.8415C42.0594 37.3748 42.9669 37.3229 42.9669 36.4154V31.1002C42.9669 28.2222 41.5409 26.5369 39.7518 26.5369C37.911 26.5369 36.6146 28.0926 36.5368 30.0372L36.5627 36.4154C36.5627 37.3229 37.5739 37.3748 37.5739 37.8415V37.9452C37.5739 38.1526 37.3665 38.2563 37.0553 38.2563H33.8143C33.5032 38.2563 33.2958 38.1526 33.2958 37.9452V37.8415C33.2958 37.3748 34.281 37.3229 34.281 36.4154V28.5593C34.281 27.5221 33.2439 27.4962 33.2439 27.0295V26.9517C33.2439 26.7702 33.3736 26.6665 33.6328 26.5628L35.6552 25.6294C36.1479 25.3701 36.4071 25.6294 36.4071 26.0183V27.8592C37.159 26.4591 38.5851 25.5257 40.2445 25.5257C42.1631 25.5257 43.8485 26.5369 44.6782 28.3778C45.3264 26.5887 46.9598 25.5257 48.8266 25.5257C51.4713 25.5257 53.4677 27.1332 53.727 31.4113L54.0122 36.3895ZM63.5379 25.5257C66.7011 25.5257 69.5014 27.9888 69.5014 31.8262C69.5014 35.6635 66.8308 38.4897 63.5639 38.4897C61.9563 38.4897 60.634 37.8155 59.7265 36.7006V42.2752C59.7265 43.2345 60.7377 43.2345 60.7377 43.7271V43.8049C60.7377 44.0383 60.5303 44.142 60.2191 44.142H57.03C56.7189 44.142 56.4855 44.0383 56.4855 43.8049V43.7271C56.4855 43.2345 57.4448 43.2345 57.4448 42.2752V28.5333C57.4448 27.6258 56.4077 27.5999 56.4077 27.0814V27.0036C56.4077 26.7962 56.5633 26.6406 56.8226 26.5369L58.6894 25.6294C59.208 25.396 59.4154 25.6035 59.4154 25.9924L59.3894 27.7036C60.1673 26.3813 61.723 25.5257 63.5379 25.5257ZM63.2527 37.66C65.6381 37.66 67.1938 35.6376 67.1938 32.4485C67.1938 28.8704 65.4825 26.3554 62.9675 26.3554C61.36 26.3554 59.9339 27.6518 59.7265 29.2334V33.6671C59.7265 35.7413 61.4378 37.66 63.2527 37.66ZM82.0315 36.1562C82.187 37.7637 83.4834 37.1933 83.4834 37.8415C83.4834 38.2304 82.7834 38.386 81.824 38.386C80.6573 38.386 80.035 38.1008 79.9313 36.6747C79.3349 37.7637 78.0904 38.4897 76.1977 38.4897C73.3456 38.4897 71.3751 37.0636 71.3751 34.5745C71.3491 32.0855 73.4234 30.7372 76.1199 30.7372C77.4941 30.7372 78.609 31.1261 79.309 31.7743L79.2572 31.0743C78.972 28.0148 78.1423 26.3554 76.068 26.3554C73.3715 26.3554 73.7864 29.3112 72.49 29.3112C71.8677 29.3112 71.4788 28.9482 71.4788 28.3518C71.4788 26.9777 73.2419 25.5257 76.068 25.5257C79.2572 25.5257 81.1758 27.574 81.5129 30.9965L82.0315 36.1562ZM76.7681 37.66C78.5053 37.66 79.6461 36.3895 79.5942 34.8079L79.4905 33.6411C79.2312 32.4225 78.1682 31.5669 76.6384 31.5669C74.8753 31.5669 73.6567 32.6559 73.6567 34.2634C73.6567 36.1562 74.9013 37.66 76.7681 37.66ZM96.8586 36.3636C96.9105 37.3229 97.792 37.3229 97.792 37.8155V37.9193C97.792 38.1267 97.5846 38.2563 97.2475 38.2563H94.1621C93.825 38.2563 93.6176 38.1267 93.6176 37.9193V37.8155C93.6176 37.3229 94.6029 37.3229 94.551 36.3895L94.2917 31.2039C94.1621 28.0407 92.8916 26.5369 91.1026 26.5369C89.1839 26.5369 87.8616 28.0666 87.8616 30.1149V36.4154C87.8616 37.3229 88.8987 37.3229 88.8987 37.8155V37.9193C88.8987 38.1267 88.6913 38.2563 88.3542 38.2563H85.1132C84.8021 38.2563 84.5947 38.1267 84.5947 37.9193V37.8155C84.5947 37.3229 85.6059 37.3229 85.6059 36.4154V28.5593C85.6059 27.4444 84.5169 27.4962 84.5169 27.0295V26.9517C84.5169 26.7702 84.6725 26.6665 84.9317 26.5628L86.8763 25.6294C87.369 25.3701 87.6023 25.6294 87.6023 26.0183V27.9111C88.3542 26.4591 89.8581 25.5257 91.6471 25.5257C94.188 25.5257 96.3141 27.2369 96.5734 31.2558L96.8586 36.3636ZM101.531 23.3218C100.468 23.3218 99.7942 22.6736 99.7942 21.7143C99.7942 20.7549 100.468 20.0808 101.531 20.0808C102.543 20.0808 103.217 20.7549 103.217 21.7143C103.217 22.6736 102.543 23.3218 101.531 23.3218ZM100.028 38.2304C99.7164 38.2304 99.5349 38.1008 99.5349 37.8933V37.7896C99.5349 37.297 100.468 37.297 100.468 36.3895V28.663C100.468 27.6518 99.5349 27.4444 99.5349 27.0554V27.0036C99.5349 26.8221 99.6904 26.7443 99.9238 26.6147L101.92 25.6294C102.465 25.3701 102.724 25.6294 102.724 25.9924V36.3895C102.724 37.297 103.761 37.297 103.761 37.7896V37.8933C103.761 38.1008 103.528 38.2304 103.217 38.2304H100.028ZM116.133 34.5745C116.366 34.2116 116.963 34.2893 116.885 34.782C116.574 36.3376 114.863 38.4897 111.622 38.4897C108.277 38.4897 105.606 35.9487 105.606 31.904C105.606 28.2481 108.277 25.5257 111.725 25.5257C114.837 25.5257 116.548 27.574 116.548 29.363C116.548 30.1927 116.107 30.6335 115.329 30.8928L108.147 33.2522C108.744 35.482 110.325 36.8303 112.425 36.8303C114.344 36.8303 115.563 35.8191 116.133 34.5745ZM111.336 26.3554C109.236 26.3554 107.862 28.4296 107.862 31.0743C107.862 31.541 107.888 31.9817 107.966 32.3966L113.748 30.3224C114.188 30.1409 114.37 29.8557 114.37 29.4149C114.37 28.2481 113.125 26.3554 111.336 26.3554ZM123.629 38.4637C120.181 38.4637 118.366 36.7266 118.366 35.508C118.366 34.8857 118.781 34.5486 119.377 34.5486C120.985 34.5486 120.155 37.7118 123.629 37.7118C125.289 37.7118 126.585 36.9081 126.585 35.4302C126.585 31.6188 118.651 34.1856 118.651 29.0778C118.651 27.0814 120.673 25.5257 123.526 25.5257C126.741 25.5257 128.581 27.1851 128.581 28.5852C128.581 29.1037 128.167 29.4927 127.648 29.4927C126.17 29.4927 126.818 26.3295 123.629 26.3295C122.125 26.3295 120.959 27.2888 120.959 28.5852C120.959 32.3188 128.867 29.7779 128.867 34.9635C128.867 36.9081 126.844 38.4637 123.629 38.4637Z"/>
</mask>
<path d="M9.59335 38.4897C5.03003 38.4897 0.855623 33.9782 0.855623 28.8445C0.855623 23.3996 4.48554 19.5882 9.46371 19.5882C13.5603 19.5882 16.542 22.518 16.542 24.3849C16.542 25.059 16.1272 25.4998 15.4012 25.4998C13.4566 25.4998 13.6122 20.6512 8.86737 20.6512C5.85972 20.6512 3.18914 23.4514 3.18914 27.5481C3.18914 32.7855 6.58571 36.4154 10.2416 36.4154C13.3529 36.4154 15.1419 34.0301 15.9457 32.1114C16.2568 31.5928 17.0606 31.6965 16.905 32.4485C16.3346 35.508 13.8974 38.4897 9.59335 38.4897ZM25.1951 38.4897C21.0726 38.4897 18.4279 35.3524 18.4279 31.8262C18.4279 28.2222 21.1763 25.5257 24.7284 25.5257C28.6176 25.5257 31.3141 28.4815 31.3141 32.1114C31.3141 35.6895 28.851 38.4897 25.1951 38.4897ZM25.5062 37.634C27.5286 37.634 29.0324 35.7932 29.0324 32.8892C29.0324 29.2593 27.1138 26.3813 24.4691 26.3813C22.2652 26.3813 20.7355 28.1963 20.7355 31.1002C20.7355 34.419 22.6542 37.634 25.5062 37.634ZM54.0122 36.3895C54.0641 37.3229 54.9716 37.3748 54.9716 37.8415V37.9452C54.9716 38.1526 54.7382 38.2563 54.453 38.2563H51.3416C51.0046 38.2563 50.8231 38.1526 50.8231 37.9452V37.8415C50.8231 37.3748 51.7565 37.3229 51.7306 36.4154L51.4713 31.3595C51.2898 27.8592 50.123 26.5369 48.2303 26.5369C46.5968 26.5369 45.2226 27.9888 45.1449 29.9594C45.2226 30.3483 45.2486 30.7891 45.2486 31.2298V36.4154C45.2486 37.3229 46.1561 37.3748 46.1561 37.8415V37.9452C46.1561 38.1526 45.9746 38.2563 45.6634 38.2563H42.6039C42.2669 38.2563 42.0594 38.1526 42.0594 37.9452V37.8415C42.0594 37.3748 42.9669 37.3229 42.9669 36.4154V31.1002C42.9669 28.2222 41.5409 26.5369 39.7518 26.5369C37.911 26.5369 36.6146 28.0926 36.5368 30.0372L36.5627 36.4154C36.5627 37.3229 37.5739 37.3748 37.5739 37.8415V37.9452C37.5739 38.1526 37.3665 38.2563 37.0553 38.2563H33.8143C33.5032 38.2563 33.2958 38.1526 33.2958 37.9452V37.8415C33.2958 37.3748 34.281 37.3229 34.281 36.4154V28.5593C34.281 27.5221 33.2439 27.4962 33.2439 27.0295V26.9517C33.2439 26.7702 33.3736 26.6665 33.6328 26.5628L35.6552 25.6294C36.1479 25.3701 36.4071 25.6294 36.4071 26.0183V27.8592C37.159 26.4591 38.5851 25.5257 40.2445 25.5257C42.1631 25.5257 43.8485 26.5369 44.6782 28.3778C45.3264 26.5887 46.9598 25.5257 48.8266 25.5257C51.4713 25.5257 53.4677 27.1332 53.727 31.4113L54.0122 36.3895ZM63.5379 25.5257C66.7011 25.5257 69.5014 27.9888 69.5014 31.8262C69.5014 35.6635 66.8308 38.4897 63.5639 38.4897C61.9563 38.4897 60.634 37.8155 59.7265 36.7006V42.2752C59.7265 43.2345 60.7377 43.2345 60.7377 43.7271V43.8049C60.7377 44.0383 60.5303 44.142 60.2191 44.142H57.03C56.7189 44.142 56.4855 44.0383 56.4855 43.8049V43.7271C56.4855 43.2345 57.4448 43.2345 57.4448 42.2752V28.5333C57.4448 27.6258 56.4077 27.5999 56.4077 27.0814V27.0036C56.4077 26.7962 56.5633 26.6406 56.8226 26.5369L58.6894 25.6294C59.208 25.396 59.4154 25.6035 59.4154 25.9924L59.3894 27.7036C60.1673 26.3813 61.723 25.5257 63.5379 25.5257ZM63.2527 37.66C65.6381 37.66 67.1938 35.6376 67.1938 32.4485C67.1938 28.8704 65.4825 26.3554 62.9675 26.3554C61.36 26.3554 59.9339 27.6518 59.7265 29.2334V33.6671C59.7265 35.7413 61.4378 37.66 63.2527 37.66ZM82.0315 36.1562C82.187 37.7637 83.4834 37.1933 83.4834 37.8415C83.4834 38.2304 82.7834 38.386 81.824 38.386C80.6573 38.386 80.035 38.1008 79.9313 36.6747C79.3349 37.7637 78.0904 38.4897 76.1977 38.4897C73.3456 38.4897 71.3751 37.0636 71.3751 34.5745C71.3491 32.0855 73.4234 30.7372 76.1199 30.7372C77.4941 30.7372 78.609 31.1261 79.309 31.7743L79.2572 31.0743C78.972 28.0148 78.1423 26.3554 76.068 26.3554C73.3715 26.3554 73.7864 29.3112 72.49 29.3112C71.8677 29.3112 71.4788 28.9482 71.4788 28.3518C71.4788 26.9777 73.2419 25.5257 76.068 25.5257C79.2572 25.5257 81.1758 27.574 81.5129 30.9965L82.0315 36.1562ZM76.7681 37.66C78.5053 37.66 79.6461 36.3895 79.5942 34.8079L79.4905 33.6411C79.2312 32.4225 78.1682 31.5669 76.6384 31.5669C74.8753 31.5669 73.6567 32.6559 73.6567 34.2634C73.6567 36.1562 74.9013 37.66 76.7681 37.66ZM96.8586 36.3636C96.9105 37.3229 97.792 37.3229 97.792 37.8155V37.9193C97.792 38.1267 97.5846 38.2563 97.2475 38.2563H94.1621C93.825 38.2563 93.6176 38.1267 93.6176 37.9193V37.8155C93.6176 37.3229 94.6029 37.3229 94.551 36.3895L94.2917 31.2039C94.1621 28.0407 92.8916 26.5369 91.1026 26.5369C89.1839 26.5369 87.8616 28.0666 87.8616 30.1149V36.4154C87.8616 37.3229 88.8987 37.3229 88.8987 37.8155V37.9193C88.8987 38.1267 88.6913 38.2563 88.3542 38.2563H85.1132C84.8021 38.2563 84.5947 38.1267 84.5947 37.9193V37.8155C84.5947 37.3229 85.6059 37.3229 85.6059 36.4154V28.5593C85.6059 27.4444 84.5169 27.4962 84.5169 27.0295V26.9517C84.5169 26.7702 84.6725 26.6665 84.9317 26.5628L86.8763 25.6294C87.369 25.3701 87.6023 25.6294 87.6023 26.0183V27.9111C88.3542 26.4591 89.8581 25.5257 91.6471 25.5257C94.188 25.5257 96.3141 27.2369 96.5734 31.2558L96.8586 36.3636ZM101.531 23.3218C100.468 23.3218 99.7942 22.6736 99.7942 21.7143C99.7942 20.7549 100.468 20.0808 101.531 20.0808C102.543 20.0808 103.217 20.7549 103.217 21.7143C103.217 22.6736 102.543 23.3218 101.531 23.3218ZM100.028 38.2304C99.7164 38.2304 99.5349 38.1008 99.5349 37.8933V37.7896C99.5349 37.297 100.468 37.297 100.468 36.3895V28.663C100.468 27.6518 99.5349 27.4444 99.5349 27.0554V27.0036C99.5349 26.8221 99.6904 26.7443 99.9238 26.6147L101.92 25.6294C102.465 25.3701 102.724 25.6294 102.724 25.9924V36.3895C102.724 37.297 103.761 37.297 103.761 37.7896V37.8933C103.761 38.1008 103.528 38.2304 103.217 38.2304H100.028ZM116.133 34.5745C116.366 34.2116 116.963 34.2893 116.885 34.782C116.574 36.3376 114.863 38.4897 111.622 38.4897C108.277 38.4897 105.606 35.9487 105.606 31.904C105.606 28.2481 108.277 25.5257 111.725 25.5257C114.837 25.5257 116.548 27.574 116.548 29.363C116.548 30.1927 116.107 30.6335 115.329 30.8928L108.147 33.2522C108.744 35.482 110.325 36.8303 112.425 36.8303C114.344 36.8303 115.563 35.8191 116.133 34.5745ZM111.336 26.3554C109.236 26.3554 107.862 28.4296 107.862 31.0743C107.862 31.541 107.888 31.9817 107.966 32.3966L113.748 30.3224C114.188 30.1409 114.37 29.8557 114.37 29.4149C114.37 28.2481 113.125 26.3554 111.336 26.3554ZM123.629 38.4637C120.181 38.4637 118.366 36.7266 118.366 35.508C118.366 34.8857 118.781 34.5486 119.377 34.5486C120.985 34.5486 120.155 37.7118 123.629 37.7118C125.289 37.7118 126.585 36.9081 126.585 35.4302C126.585 31.6188 118.651 34.1856 118.651 29.0778C118.651 27.0814 120.673 25.5257 123.526 25.5257C126.741 25.5257 128.581 27.1851 128.581 28.5852C128.581 29.1037 128.167 29.4927 127.648 29.4927C126.17 29.4927 126.818 26.3295 123.629 26.3295C122.125 26.3295 120.959 27.2888 120.959 28.5852C120.959 32.3188 128.867 29.7779 128.867 34.9635C128.867 36.9081 126.844 38.4637 123.629 38.4637Z" fill="#4F5D80"/>
<path d="M15.9457 32.1114L15.3281 31.7408L15.3014 31.7853L15.2814 31.8331L15.9457 32.1114ZM16.905 32.4485L16.1998 32.3025L16.1983 32.3095L16.197 32.3165L16.905 32.4485ZM9.59335 37.7695C5.48874 37.7695 1.57584 33.6442 1.57584 28.8445H0.135402C0.135402 34.3122 4.57132 39.2099 9.59335 39.2099V37.7695ZM1.57584 28.8445C1.57584 23.7521 4.92708 20.3084 9.46371 20.3084V18.868C4.044 18.868 0.135402 23.0471 0.135402 28.8445H1.57584ZM9.46371 20.3084C11.3397 20.3084 12.9575 20.9798 14.1004 21.8577C14.6721 22.2967 15.1126 22.778 15.4054 23.2358C15.7032 23.7015 15.8218 24.1002 15.8218 24.3849H17.2623C17.2623 23.736 17.0082 23.0685 16.6189 22.4598C16.2246 21.8432 15.6637 21.242 14.9778 20.7153C13.6058 19.6615 11.6843 18.868 9.46371 18.868V20.3084ZM15.8218 24.3849C15.8218 24.5735 15.7666 24.6538 15.7346 24.6858C15.7033 24.7171 15.617 24.7795 15.4012 24.7795V26.22C15.9114 26.22 16.3955 26.062 16.7532 25.7044C17.1101 25.3474 17.2623 24.8703 17.2623 24.3849H15.8218ZM15.4012 24.7795C15.2719 24.7795 15.1044 24.7208 14.8082 24.3165C14.6646 24.1206 14.5197 23.8833 14.3491 23.597C14.1839 23.3196 13.9965 22.9995 13.7861 22.6797C13.363 22.0365 12.8136 21.3403 12.0156 20.8092C11.2067 20.2709 10.1861 19.931 8.86737 19.931V21.3714C9.92101 21.3714 10.6603 21.6376 11.2175 22.0084C11.7856 22.3864 12.2084 22.9023 12.5827 23.4713C12.7709 23.7575 12.9384 24.0435 13.1116 24.3343C13.2796 24.6162 13.4567 24.9092 13.6462 25.1678C14.016 25.6726 14.5582 26.22 15.4012 26.22V24.7795ZM8.86737 19.931C5.36455 19.931 2.46892 23.1586 2.46892 27.5481H3.90936C3.90936 23.7443 6.3549 21.3714 8.86737 21.3714V19.931ZM2.46892 27.5481C2.46892 33.0572 6.07257 37.1357 10.2416 37.1357V35.6952C7.09884 35.6952 3.90936 32.5139 3.90936 27.5481H2.46892ZM10.2416 37.1357C13.7887 37.1357 15.7638 34.4097 16.61 32.3897L15.2814 31.8331C14.5201 33.6504 12.9171 35.6952 10.2416 35.6952V37.1357ZM16.5633 32.4819C16.5699 32.4709 16.5387 32.5305 16.4257 32.5022C16.3571 32.4851 16.2776 32.4341 16.2317 32.3495C16.189 32.271 16.2136 32.2358 16.1998 32.3025L17.6103 32.5944C17.6743 32.2852 17.6567 31.955 17.4974 31.6618C17.3347 31.3625 17.0641 31.177 16.7751 31.1048C16.2213 30.9663 15.6327 31.2333 15.3281 31.7408L16.5633 32.4819ZM16.197 32.3165C15.6775 35.1027 13.4859 37.7695 9.59335 37.7695V39.2099C14.3089 39.2099 16.9917 35.9132 17.6131 32.5805L16.197 32.3165ZM25.1951 37.7695C21.4975 37.7695 19.1481 34.9824 19.1481 31.8262H17.7077C17.7077 35.7224 20.6476 39.2099 25.1951 39.2099V37.7695ZM19.1481 31.8262C19.1481 28.6239 21.5701 26.2459 24.7284 26.2459V24.8055C20.7824 24.8055 17.7077 27.8205 17.7077 31.8262H19.1481ZM24.7284 26.2459C28.2013 26.2459 30.5939 28.8604 30.5939 32.1114H32.0343C32.0343 28.1025 29.0339 24.8055 24.7284 24.8055V26.2459ZM30.5939 32.1114C30.5939 35.338 28.4084 37.7695 25.1951 37.7695V39.2099C29.2935 39.2099 32.0343 36.0409 32.0343 32.1114H30.5939ZM25.5062 38.3543C26.7569 38.3543 27.8445 37.7771 28.6001 36.7878C29.3465 35.8106 29.7527 34.4592 29.7527 32.8892H28.3122C28.3122 34.2232 27.9665 35.2442 27.4554 35.9135C26.9535 36.5706 26.2779 36.9138 25.5062 36.9138V38.3543ZM29.7527 32.8892C29.7527 30.9552 29.2427 29.1789 28.3352 27.8648C27.4235 26.5447 26.0808 25.6611 24.4691 25.6611V27.1015C25.5021 27.1015 26.4411 27.6569 27.1499 28.6833C27.8628 29.7157 28.3122 31.1933 28.3122 32.8892H29.7527ZM24.4691 25.6611C23.152 25.6611 22.0113 26.2114 21.215 27.2C20.4294 28.1752 20.0153 29.5278 20.0153 31.1002H21.4557C21.4557 29.7687 21.8065 28.7618 22.3367 28.1036C22.8562 27.4587 23.5824 27.1015 24.4691 27.1015V25.6611ZM20.0153 31.1002C20.0153 32.8881 20.5299 34.6673 21.4575 36.0192C22.3879 37.3752 23.7799 38.3543 25.5062 38.3543V36.9138C24.3805 36.9138 23.3871 36.2854 22.6452 35.2042C21.9004 34.1188 21.4557 32.6311 21.4557 31.1002H20.0153ZM54.0122 36.3895L54.7313 36.3496L54.7313 36.3483L54.0122 36.3895ZM51.7306 36.4154L52.4505 36.3949L52.4503 36.3867L52.4498 36.3785L51.7306 36.4154ZM51.4713 31.3595L52.1906 31.3226L52.1905 31.3222L51.4713 31.3595ZM45.1449 29.9594L44.4252 29.931L44.4218 30.0166L44.4386 30.1006L45.1449 29.9594ZM36.5368 30.0372L35.8171 30.0084L35.8165 30.0242L35.8166 30.0401L36.5368 30.0372ZM36.5627 36.4154H37.2829L37.2829 36.4125L36.5627 36.4154ZM33.6328 26.5628L33.9003 27.2315L33.9177 27.2246L33.9347 27.2167L33.6328 26.5628ZM35.6552 25.6294L35.957 26.2833L35.9741 26.2755L35.9907 26.2667L35.6552 25.6294ZM36.4071 27.8592H35.6869L37.0416 28.2L36.4071 27.8592ZM44.6782 28.3778L44.0215 28.6737L44.7508 30.2916L45.3553 28.6231L44.6782 28.3778ZM53.727 31.4113L54.4461 31.3701L54.4459 31.3678L53.727 31.4113ZM53.2931 36.4295C53.3354 37.1913 53.7563 37.6072 54.0595 37.8514C54.2389 37.9959 54.2697 38.0087 54.3221 38.0607C54.3402 38.0786 54.2513 37.9959 54.2513 37.8415H55.6918C55.6918 37.4537 55.4895 37.1895 55.3358 37.0373C55.2164 36.919 55.0172 36.7731 54.9632 36.7296C54.7996 36.5979 54.7409 36.5212 54.7313 36.3496L53.2931 36.4295ZM54.2513 37.8415V37.9452H55.6918V37.8415H54.2513ZM54.2513 37.9452C54.2513 37.8539 54.2794 37.7585 54.3343 37.6775C54.3851 37.6025 54.442 37.5641 54.4713 37.5479C54.5202 37.521 54.5235 37.5361 54.453 37.5361V38.9765C54.6677 38.9765 54.9303 38.9398 55.1672 38.8091C55.4273 38.6656 55.6918 38.3765 55.6918 37.9452H54.2513ZM54.453 37.5361H51.3416V38.9765H54.453V37.5361ZM51.3416 37.5361C51.2923 37.5361 51.2671 37.5321 51.2605 37.5308C51.2529 37.5293 51.2799 37.5333 51.3231 37.5589C51.3704 37.5869 51.4334 37.6391 51.4816 37.7233C51.53 37.8078 51.5433 37.8891 51.5433 37.9452H50.1029C50.1029 38.3059 50.2847 38.6179 50.5888 38.7981C50.839 38.9464 51.1211 38.9765 51.3416 38.9765V37.5361ZM51.5433 37.9452V37.8415H50.1029V37.9452H51.5433ZM51.5433 37.8415C51.5433 38.0025 51.4492 38.0866 51.4705 38.0658C51.5279 38.01 51.5536 38.003 51.7374 37.8554C51.877 37.7433 52.0686 37.5739 52.2173 37.326C52.3735 37.0657 52.4608 36.7561 52.4505 36.3949L51.0106 36.436C51.0133 36.5285 50.9937 36.5657 50.9821 36.5849C50.9631 36.6166 50.9262 36.6595 50.8357 36.7321C50.7894 36.7693 50.5833 36.9194 50.4665 37.0329C50.3137 37.1815 50.1029 37.4471 50.1029 37.8415H51.5433ZM52.4498 36.3785L52.1906 31.3226L50.752 31.3964L51.0113 36.4523L52.4498 36.3785ZM52.1905 31.3222C52.0971 29.5203 51.7477 28.1498 51.0777 27.2158C50.3713 26.2309 49.3718 25.8167 48.2303 25.8167V27.2571C48.9815 27.2571 49.5118 27.504 49.9073 28.0554C50.3393 28.6576 50.664 29.6984 50.752 31.3968L52.1905 31.3222ZM48.2303 25.8167C46.1276 25.8167 44.5148 27.6622 44.4252 29.931L45.8645 29.9878C45.9305 28.3155 47.0661 27.2571 48.2303 27.2571V25.8167ZM44.4386 30.1006C44.5033 30.4237 44.5284 30.8116 44.5284 31.2298H45.9688C45.9688 30.7665 45.942 30.2728 45.8511 29.8181L44.4386 30.1006ZM44.5284 31.2298V36.4154H45.9688V31.2298H44.5284ZM44.5284 36.4154C44.5284 37.1833 44.9468 37.6073 45.2475 37.8522C45.4263 37.9978 45.453 38.0069 45.5062 38.0599C45.524 38.0775 45.4358 37.9952 45.4358 37.8415H46.8763C46.8763 37.4544 46.6747 37.1905 46.5223 37.0389C46.4054 36.9225 46.2052 36.7744 46.1571 36.7353C46.0041 36.6107 45.9688 36.555 45.9688 36.4154H44.5284ZM45.4358 37.8415V37.9452H46.8763V37.8415H45.4358ZM45.4358 37.9452C45.4358 37.8891 45.4491 37.8101 45.4951 37.7282C45.541 37.6467 45.6013 37.5945 45.6489 37.5652C45.7275 37.5168 45.7588 37.5361 45.6634 37.5361V38.9765C45.8792 38.9765 46.1568 38.944 46.4039 38.7919C46.6985 38.6106 46.8763 38.3021 46.8763 37.9452H45.4358ZM45.6634 37.5361H42.6039V38.9765H45.6634V37.5361ZM42.6039 37.5361C42.555 37.5361 42.526 37.5322 42.5138 37.5298C42.5001 37.5272 42.5182 37.5286 42.5532 37.5479C42.5905 37.5685 42.6529 37.6131 42.705 37.695C42.7594 37.7807 42.7797 37.8714 42.7797 37.9452H41.3392C41.3392 38.3467 41.5665 38.6487 41.8574 38.8091C42.1042 38.9454 42.3807 38.9765 42.6039 38.9765V37.5361ZM42.7797 37.9452V37.8415H41.3392V37.9452H42.7797ZM42.7797 37.8415C42.7797 37.9952 42.6915 38.0775 42.7093 38.0599C42.7625 38.0069 42.7892 37.9978 42.9679 37.8522C43.2687 37.6073 43.6871 37.1833 43.6871 36.4154H42.2467C42.2467 36.555 42.2114 36.6107 42.0584 36.7353C42.0103 36.7744 41.8101 36.9225 41.6932 37.0389C41.5408 37.1905 41.3392 37.4544 41.3392 37.8415H42.7797ZM43.6871 36.4154V31.1002H42.2467V36.4154H43.6871ZM43.6871 31.1002C43.6871 29.5491 43.3033 28.2454 42.6084 27.3098C41.9048 26.3624 40.8942 25.8167 39.7518 25.8167V27.2571C40.3986 27.2571 40.9955 27.554 41.4521 28.1687C41.9175 28.7953 42.2467 29.7733 42.2467 31.1002H43.6871ZM39.7518 25.8167C37.4263 25.8167 35.9061 27.7837 35.8171 30.0084L37.2564 30.0659C37.323 28.4014 38.3957 27.2571 39.7518 27.2571V25.8167ZM35.8166 30.0401L35.8425 36.4184L37.2829 36.4125L37.257 30.0342L35.8166 30.0401ZM35.8425 36.4154C35.8425 37.2177 36.328 37.6448 36.6434 37.8752C36.8362 38.0162 36.8743 38.0313 36.9361 38.0865C36.9679 38.115 36.8537 38.0257 36.8537 37.8415H38.2941C38.2941 37.4239 38.0534 37.1531 37.8957 37.0122C37.7679 36.8981 37.5531 36.756 37.4932 36.7122C37.303 36.5732 37.2829 36.5207 37.2829 36.4154H35.8425ZM36.8537 37.8415V37.9452H38.2941V37.8415H36.8537ZM36.8537 37.9452C36.8537 37.8715 36.8738 37.7829 36.9259 37.6996C36.9757 37.6198 37.0359 37.5749 37.074 37.5532C37.1361 37.5177 37.1485 37.5361 37.0553 37.5361V38.9765C37.2733 38.9765 37.545 38.9431 37.7886 38.8039C38.0713 38.6423 38.2941 38.3427 38.2941 37.9452H36.8537ZM37.0553 37.5361H33.8143V38.9765H37.0553V37.5361ZM33.8143 37.5361C33.7211 37.5361 33.7336 37.5177 33.7957 37.5532C33.8337 37.5749 33.8939 37.6198 33.9438 37.6996C33.9959 37.7829 34.016 37.8715 34.016 37.9452H32.5756C32.5756 38.3427 32.7984 38.6423 33.081 38.8039C33.3247 38.9431 33.5964 38.9765 33.8143 38.9765V37.5361ZM34.016 37.9452V37.8415H32.5756V37.9452H34.016ZM34.016 37.8415C34.016 38.0181 33.9084 38.1059 33.9364 38.0803C33.996 38.0257 34.0311 38.012 34.2205 37.8699C34.5327 37.6358 35.0013 37.2092 35.0013 36.4154H33.5608C33.5608 36.5291 33.5368 36.5822 33.3563 36.7176C33.2994 36.7602 33.0882 36.9037 32.9631 37.0185C32.8063 37.1622 32.5756 37.4315 32.5756 37.8415H34.016ZM35.0013 36.4154V28.5593H33.5608V36.4154H35.0013ZM35.0013 28.5593C35.0013 28.1703 34.9013 27.8411 34.7297 27.5666C34.5647 27.3025 34.3551 27.1247 34.1946 27.0043C34.1173 26.9463 34.0362 26.8909 33.9851 26.8551C33.9251 26.8132 33.8955 26.7908 33.8777 26.7753C33.8393 26.7421 33.9641 26.8347 33.9641 27.0295H32.5237C32.5237 27.4576 32.7781 27.7285 32.9343 27.8638C33.0137 27.9326 33.0975 27.9921 33.159 28.0352C33.2295 28.0845 33.278 28.1174 33.3303 28.1567C33.4291 28.2308 33.4788 28.283 33.5082 28.33C33.5312 28.3667 33.5608 28.4297 33.5608 28.5593H35.0013ZM33.9641 27.0295V26.9517H32.5237V27.0295H33.9641ZM33.9641 26.9517C33.9641 26.9949 33.9558 27.0546 33.9276 27.1188C33.8997 27.1822 33.8632 27.2255 33.8372 27.2503C33.8138 27.2725 33.8007 27.2779 33.8138 27.2706C33.8265 27.2635 33.8528 27.2505 33.9003 27.2315L33.3654 25.8941C33.215 25.9542 33.0124 26.047 32.8451 26.2059C32.6437 26.3972 32.5237 26.6546 32.5237 26.9517H33.9641ZM33.9347 27.2167L35.957 26.2833L35.3534 24.9755L33.331 25.9089L33.9347 27.2167ZM35.9907 26.2667C36.0507 26.2351 36.0606 26.2426 36.0272 26.2448C35.9863 26.2474 35.9086 26.2393 35.8272 26.1871C35.7491 26.137 35.7113 26.0744 35.6966 26.0399C35.6831 26.0082 35.6869 25.9977 35.6869 26.0183H37.1274C37.1274 25.6936 37.0187 25.2399 36.6046 24.9744C36.1688 24.6951 35.6801 24.8024 35.3198 24.9921L35.9907 26.2667ZM35.6869 26.0183V27.8592H37.1274V26.0183H35.6869ZM37.0416 28.2C37.6769 27.017 38.8685 26.2459 40.2445 26.2459V24.8055C38.3016 24.8055 36.6412 25.9012 35.7726 27.5184L37.0416 28.2ZM40.2445 26.2459C41.892 26.2459 43.3131 27.1019 44.0215 28.6737L45.3348 28.0818C44.3838 25.9718 42.4343 24.8055 40.2445 24.8055V26.2459ZM45.3553 28.6231C45.8938 27.137 47.2435 26.2459 48.8266 26.2459V24.8055C46.6761 24.8055 44.759 26.0405 44.001 28.1324L45.3553 28.6231ZM48.8266 26.2459C49.9969 26.2459 50.9458 26.5962 51.6414 27.352C52.3513 28.1233 52.8842 29.4107 53.0081 31.4549L54.4459 31.3678C54.3105 29.1338 53.7156 27.4785 52.7013 26.3765C51.6726 25.2589 50.301 24.8055 48.8266 24.8055V26.2459ZM53.008 31.4525L53.2932 36.4307L54.7313 36.3483L54.4461 31.3701L53.008 31.4525ZM59.7265 36.7006L60.2851 36.246L59.0063 34.6749V36.7006H59.7265ZM56.8226 26.5369L57.0901 27.2056L57.1141 27.196L57.1375 27.1846L56.8226 26.5369ZM58.6894 25.6294L58.3938 24.9726L58.3841 24.977L58.3745 24.9817L58.6894 25.6294ZM59.4154 25.9924L60.1356 26.0033V25.9924H59.4154ZM59.3894 27.7036L58.6693 27.6927L58.628 30.4186L60.0102 28.0688L59.3894 27.7036ZM59.7265 29.2334L59.0124 29.1397L59.0063 29.1864V29.2334H59.7265ZM63.5379 26.2459C66.3034 26.2459 68.7811 28.3866 68.7811 31.8262H70.2216C70.2216 27.5911 67.0989 24.8055 63.5379 24.8055V26.2459ZM68.7811 31.8262C68.7811 35.3334 66.3685 37.7695 63.5639 37.7695V39.2099C67.293 39.2099 70.2216 35.9936 70.2216 31.8262H68.7811ZM63.5639 37.7695C62.1747 37.7695 61.0569 37.1942 60.2851 36.246L59.1679 37.1553C60.2111 38.4369 61.738 39.2099 63.5639 39.2099V37.7695ZM59.0063 36.7006V42.2752H60.4467V36.7006H59.0063ZM59.0063 42.2752C59.0063 42.6531 59.1093 42.9724 59.2847 43.2362C59.4513 43.4867 59.6607 43.6525 59.8121 43.7612C60.0101 43.9034 60.0414 43.9125 60.1012 43.9656C60.1215 43.9836 60.0175 43.8961 60.0175 43.7271H61.4579C61.4579 43.3119 61.2275 43.0396 61.0582 42.889C60.9284 42.7736 60.7069 42.6304 60.6521 42.5911C60.5507 42.5183 60.5074 42.4735 60.4843 42.4387C60.4701 42.4174 60.4467 42.3769 60.4467 42.2752H59.0063ZM60.0175 43.7271V43.8049H61.4579V43.7271H60.0175ZM60.0175 43.8049C60.0175 43.7533 60.03 43.6776 60.0751 43.5987C60.1197 43.5206 60.1777 43.4718 60.2213 43.4453C60.2615 43.4209 60.2871 43.4165 60.2824 43.4175C60.2786 43.4183 60.2587 43.4217 60.2191 43.4217V44.8622C60.435 44.8622 60.7169 44.8295 60.9689 44.6766C61.2685 44.4947 61.4579 44.1804 61.4579 43.8049H60.0175ZM60.2191 43.4217H57.03V44.8622H60.2191V43.4217ZM57.03 43.4217C56.9907 43.4217 56.967 43.4183 56.9574 43.4164C56.9465 43.4142 56.9636 43.4159 56.9962 43.4343C57.0307 43.4539 57.0884 43.4961 57.1366 43.5727C57.1871 43.6531 57.2057 43.7375 57.2057 43.8049H55.7653C55.7653 44.2172 55.9965 44.5235 56.286 44.6876C56.5353 44.8288 56.8125 44.8622 57.03 44.8622V43.4217ZM57.2057 43.8049V43.7271H55.7653V43.8049H57.2057ZM57.2057 43.7271C57.2057 43.881 57.1144 43.9655 57.1278 43.9529C57.1833 43.901 57.2086 43.8951 57.3998 43.7505C57.5457 43.64 57.7459 43.4726 57.9041 43.2217C58.0697 42.9592 58.1651 42.6451 58.1651 42.2752H56.7246C56.7246 42.3848 56.7001 42.4305 56.6858 42.4533C56.6641 42.4876 56.6245 42.5308 56.5306 42.6018C56.4819 42.6387 56.2674 42.7851 56.143 42.9018C55.9765 43.0577 55.7653 43.3269 55.7653 43.7271H57.2057ZM58.1651 42.2752V28.5333H56.7246V42.2752H58.1651ZM58.1651 28.5333C58.1651 27.7185 57.6566 27.2975 57.3442 27.0749C57.1567 26.9413 57.1108 26.9185 57.0576 26.8696C57.0366 26.8502 57.1279 26.9292 57.1279 27.0814H55.6875C55.6875 27.4928 55.9085 27.7695 56.0819 27.9292C56.2232 28.0593 56.4366 28.1969 56.5084 28.2481C56.7146 28.395 56.7246 28.4407 56.7246 28.5333H58.1651ZM57.1279 27.0814V27.0036H55.6875V27.0814H57.1279ZM57.1279 27.0036C57.1279 27.0441 57.1199 27.0886 57.1023 27.1314C57.0852 27.1731 57.0638 27.2017 57.0488 27.218C57.0234 27.2458 57.0221 27.2328 57.0901 27.2056L56.5551 25.8682C56.197 26.0114 55.6875 26.3504 55.6875 27.0036H57.1279ZM57.1375 27.1846L59.0043 26.2771L58.3745 24.9817L56.5077 25.8891L57.1375 27.1846ZM58.9849 26.2862C59.0672 26.2492 59.0944 26.2497 59.0783 26.251C59.0563 26.2527 58.971 26.253 58.8713 26.1921C58.7698 26.1301 58.7218 26.0465 58.704 26.0009C58.6891 25.9627 58.6952 25.9532 58.6952 25.9924H60.1356C60.1356 25.7179 60.0669 25.2346 59.6224 24.963C59.1895 24.6984 58.7115 24.8297 58.3938 24.9726L58.9849 26.2862ZM58.6952 25.9815L58.6693 27.6927L60.1096 27.7145L60.1355 26.0033L58.6952 25.9815ZM60.0102 28.0688C60.6419 26.995 61.9432 26.2459 63.5379 26.2459V24.8055C61.5027 24.8055 59.6927 25.7676 58.7687 27.3385L60.0102 28.0688ZM63.2527 38.3802C64.6717 38.3802 65.8687 37.7684 66.6912 36.6859C67.4995 35.6222 67.914 34.1513 67.914 32.4485H66.4735C66.4735 33.9347 66.1102 35.0696 65.5443 35.8144C64.9927 36.5404 64.2191 36.9398 63.2527 36.9398V38.3802ZM67.914 32.4485C67.914 30.5538 67.4621 28.8769 66.6166 27.6512C65.7607 26.4103 64.496 25.6352 62.9675 25.6352V27.0756C63.954 27.0756 64.8025 27.558 65.4309 28.4691C66.0698 29.3954 66.4735 30.765 66.4735 32.4485H67.914ZM62.9675 25.6352C60.9863 25.6352 59.2653 27.2118 59.0124 29.1397L60.4406 29.327C60.6026 28.0918 61.7337 27.0756 62.9675 27.0756V25.6352ZM59.0063 29.2334V33.6671H60.4467V29.2334H59.0063ZM59.0063 33.6671C59.0063 34.8985 59.5113 36.0627 60.2699 36.919C61.025 37.7712 62.0901 38.3802 63.2527 38.3802V36.9398C62.6004 36.9398 61.9024 36.5894 61.3481 35.9638C60.7973 35.3421 60.4467 34.5099 60.4467 33.6671H59.0063ZM82.0315 36.1562L82.7483 36.0868L82.7481 36.0841L82.0315 36.1562ZM79.9313 36.6747L80.6496 36.6225L80.4725 34.187L79.2996 36.3288L79.9313 36.6747ZM71.3751 34.5745H72.0953L72.0952 34.567L71.3751 34.5745ZM79.309 31.7743L78.8197 32.3028L80.1625 33.5461L80.0273 31.7211L79.309 31.7743ZM79.2572 31.0743L79.9755 31.0211L79.9743 31.0074L79.2572 31.0743ZM81.5129 30.9965L80.7961 31.0671L80.7963 31.0685L81.5129 30.9965ZM79.5942 34.8079L80.3141 34.7843L80.3134 34.7642L80.3116 34.7441L79.5942 34.8079ZM79.4905 33.6411L80.2079 33.5774L80.204 33.5339L80.195 33.4913L79.4905 33.6411ZM81.3146 36.2255C81.3632 36.7277 81.5089 37.1346 81.7574 37.4512C82.0067 37.7687 82.3085 37.93 82.545 38.026C82.6566 38.0712 82.7679 38.1072 82.8353 38.1298C82.9173 38.1574 82.9435 38.1684 82.953 38.1732C82.9585 38.176 82.8997 38.1484 82.8432 38.0702C82.7784 37.9802 82.7632 37.8895 82.7632 37.8415H84.2037C84.2037 37.6314 84.148 37.4167 84.0116 37.2276C83.8836 37.0502 83.7224 36.9483 83.6039 36.8882C83.4894 36.8303 83.3701 36.79 83.2948 36.7646C83.2047 36.7343 83.1468 36.7156 83.0865 36.6912C82.9795 36.6478 82.9281 36.6097 82.8905 36.5618C82.8522 36.513 82.7775 36.3884 82.7483 36.0868L81.3146 36.2255ZM82.7632 37.8415C82.7632 37.6898 82.8432 37.5843 82.8897 37.5444C82.9173 37.5206 82.908 37.5396 82.8086 37.5691C82.6133 37.627 82.2804 37.6657 81.824 37.6657V39.1062C82.327 39.1062 82.8238 39.0671 83.2183 38.95C83.4139 38.892 83.6396 38.7992 83.8284 38.6369C84.0361 38.4584 84.2037 38.1876 84.2037 37.8415H82.7632ZM81.824 37.6657C81.2605 37.6657 81.0349 37.5868 80.9268 37.501C80.8459 37.4368 80.6958 37.257 80.6496 36.6225L79.213 36.727C79.2705 37.5184 79.4834 38.1943 80.0312 38.6292C80.5519 39.0425 81.2209 39.1062 81.824 39.1062V37.6657ZM79.2996 36.3288C78.8616 37.1287 77.9012 37.7695 76.1977 37.7695V39.2099C78.2796 39.2099 79.8083 38.3987 80.563 37.0206L79.2996 36.3288ZM76.1977 37.7695C74.8825 37.7695 73.8495 37.4399 73.162 36.8993C72.4945 36.3745 72.0953 35.6085 72.0953 34.5745H70.6548C70.6548 36.0297 71.2409 37.2212 72.2717 38.0317C73.2825 38.8264 74.6608 39.2099 76.1977 39.2099V37.7695ZM72.0952 34.567C72.0846 33.5498 72.4916 32.8059 73.1625 32.2958C73.8561 31.7683 74.8812 31.4574 76.1199 31.4574V30.017C74.662 30.017 73.3017 30.3803 72.2906 31.1492C71.2567 31.9354 70.6395 33.1102 70.6549 34.5821L72.0952 34.567ZM76.1199 31.4574C77.3716 31.4574 78.2905 31.8128 78.8197 32.3028L79.7983 31.2459C78.9274 30.4395 77.6165 30.017 76.1199 30.017V31.4574ZM80.0273 31.7211L79.9754 31.0211L78.5389 31.1275L78.5908 31.8275L80.0273 31.7211ZM79.9743 31.0074C79.8293 29.4521 79.5393 28.1302 78.9428 27.1836C78.6366 26.6975 78.2438 26.3008 77.7454 26.0298C77.2479 25.7592 76.6846 25.6352 76.068 25.6352V27.0756C76.4886 27.0756 76.8068 27.159 77.0572 27.2952C77.3067 27.4308 77.528 27.6402 77.7241 27.9515C78.1324 28.5994 78.3998 29.637 78.5401 31.1411L79.9743 31.0074ZM76.068 25.6352C75.2497 25.6352 74.6123 25.8638 74.1148 26.2462C73.6335 26.616 73.3338 27.0919 73.1189 27.4935C73.0137 27.6902 72.9148 27.897 72.8363 28.0544C72.7513 28.2248 72.6837 28.351 72.6183 28.4486C72.5531 28.546 72.5125 28.5802 72.4983 28.59C72.4965 28.5912 72.5023 28.5909 72.49 28.5909V30.0314C73.1617 30.0314 73.5695 29.6171 73.8152 29.25C73.9354 29.0705 74.0375 28.8735 74.1253 28.6974C74.2196 28.5085 74.2965 28.3458 74.389 28.1731C74.5695 27.8357 74.7527 27.5726 74.9925 27.3883C75.2162 27.2164 75.5381 27.0756 76.068 27.0756V25.6352ZM72.49 28.5909C72.317 28.5909 72.257 28.5423 72.2455 28.5315C72.2391 28.5255 72.199 28.4884 72.199 28.3518H70.7586C70.7586 28.8117 70.9129 29.2542 71.2565 29.5787C71.5951 29.8985 72.0407 30.0314 72.49 30.0314V28.5909ZM72.199 28.3518C72.199 27.9823 72.4458 27.4721 73.1159 27.0208C73.7724 26.5787 74.774 26.2459 76.068 26.2459V24.8055C74.5359 24.8055 73.2429 25.1987 72.3113 25.8261C71.3933 26.4443 70.7586 27.3472 70.7586 28.3518H72.199ZM76.068 26.2459C77.4994 26.2459 78.5804 26.7003 79.3454 27.4816C80.1204 28.2729 80.6388 29.4693 80.7962 31.0671L82.2297 30.9259C82.0499 29.1012 81.4405 27.5622 80.3746 26.4737C79.2987 25.3752 77.8258 24.8055 76.068 24.8055V26.2459ZM80.7963 31.0685L81.3148 36.2282L82.7481 36.0841L82.2295 30.9245L80.7963 31.0685ZM76.7681 38.3802C78.9162 38.3802 80.3791 36.7688 80.3141 34.7843L78.8744 34.8315C78.913 36.0102 78.0943 36.9398 76.7681 36.9398V38.3802ZM80.3116 34.7441L80.2079 33.5774L78.7731 33.7049L78.8768 34.8717L80.3116 34.7441ZM80.195 33.4913C79.8554 31.8951 78.46 30.8467 76.6384 30.8467V32.2871C77.8764 32.2871 78.6071 32.95 78.7861 33.791L80.195 33.4913ZM76.6384 30.8467C75.6097 30.8467 74.6829 31.1657 74.0042 31.7773C73.3194 32.3946 72.9365 33.2671 72.9365 34.2634H74.3769C74.3769 33.6522 74.6034 33.1765 74.9686 32.8473C75.34 32.5126 75.9041 32.2871 76.6384 32.2871V30.8467ZM72.9365 34.2634C72.9365 36.4718 74.4261 38.3802 76.7681 38.3802V36.9398C75.3764 36.9398 74.3769 35.8405 74.3769 34.2634H72.9365ZM96.8586 36.3636L97.5778 36.3247L97.5777 36.3234L96.8586 36.3636ZM94.551 36.3895L93.8317 36.4255L93.8319 36.4295L94.551 36.3895ZM94.2917 31.2039L93.5721 31.2334L93.5724 31.2399L94.2917 31.2039ZM84.9317 26.5628L85.1992 27.2315L85.2216 27.2225L85.2434 27.2121L84.9317 26.5628ZM86.8763 25.6294L87.188 26.2787L87.2 26.2729L87.2118 26.2667L86.8763 25.6294ZM87.6023 27.9111H86.8821L88.2419 28.2423L87.6023 27.9111ZM96.5734 31.2558L97.2925 31.2156L97.2921 31.2094L96.5734 31.2558ZM96.1394 36.4025C96.1809 37.17 96.5867 37.5805 96.8948 37.827C97.0727 37.9693 97.0963 37.9767 97.1417 38.0226C97.1457 38.0266 97.0718 37.9473 97.0718 37.8155H98.5122C98.5122 37.4375 98.3281 37.1735 98.1652 37.0089C98.0437 36.8863 97.8437 36.7414 97.7947 36.7022C97.6491 36.5857 97.5882 36.5165 97.5778 36.3247L96.1394 36.4025ZM97.0718 37.8155V37.9193H98.5122V37.8155H97.0718ZM97.0718 37.9193C97.0718 37.8462 97.0915 37.7646 97.1362 37.6898C97.1793 37.6177 97.2315 37.5753 97.2664 37.5536C97.3261 37.5166 97.3378 37.5361 97.2475 37.5361V38.9765C97.4944 38.9765 97.7783 38.9312 98.026 38.7775C98.3016 38.6064 98.5122 38.3055 98.5122 37.9193H97.0718ZM97.2475 37.5361H94.1621V38.9765H97.2475V37.5361ZM94.1621 37.5361C94.0719 37.5361 94.0836 37.5166 94.1433 37.5536C94.1781 37.5753 94.2303 37.6177 94.2734 37.6898C94.3182 37.7646 94.3378 37.8462 94.3378 37.9193H92.8974C92.8974 38.3055 93.1081 38.6064 93.3836 38.7775C93.6313 38.9312 93.9153 38.9765 94.1621 38.9765V37.5361ZM94.3378 37.9193V37.8155H92.8974V37.9193H94.3378ZM94.3378 37.8155C94.3378 37.9763 94.241 38.0622 94.2572 38.0473C94.3154 37.994 94.3395 37.99 94.5334 37.8459C94.6792 37.7375 94.8846 37.5689 95.0413 37.3129C95.207 37.0422 95.2908 36.7207 95.2701 36.3496L93.8319 36.4295C93.8372 36.525 93.8172 36.5535 93.8128 36.5608C93.7994 36.5827 93.7681 36.6199 93.6741 36.6898C93.6282 36.7239 93.4093 36.8706 93.2843 36.985C93.1174 37.1379 92.8974 37.4085 92.8974 37.8155H94.3378ZM95.2703 36.3535L95.0111 31.1679L93.5724 31.2399L93.8317 36.4255L95.2703 36.3535ZM95.0114 31.1744C94.9434 29.5156 94.5744 28.1911 93.9032 27.2623C93.2102 26.3034 92.2281 25.8167 91.1026 25.8167V27.2571C91.7661 27.2571 92.3138 27.5222 92.7357 28.106C93.1794 28.72 93.5105 29.729 93.5721 31.2334L95.0114 31.1744ZM91.1026 25.8167C88.712 25.8167 87.1414 27.7473 87.1414 30.1149H88.5818C88.5818 28.3859 89.6559 27.2571 91.1026 27.2571V25.8167ZM87.1414 30.1149V36.4154H88.5818V30.1149H87.1414ZM87.1414 36.4154C87.1414 36.794 87.254 37.111 87.4388 37.368C87.6117 37.6087 87.827 37.7666 87.9772 37.868C88.1722 37.9996 88.2117 38.0151 88.2676 38.0631C88.289 38.0814 88.1785 37.992 88.1785 37.8155H89.6189C89.6189 37.3927 89.3788 37.1186 89.2058 36.9701C89.0672 36.8511 88.8474 36.7175 88.7831 36.6741C88.6741 36.6005 88.63 36.5574 88.6085 36.5275C88.5988 36.514 88.5818 36.4907 88.5818 36.4154H87.1414ZM88.1785 37.8155V37.9193H89.6189V37.8155H88.1785ZM88.1785 37.9193C88.1785 37.8462 88.1982 37.7646 88.2429 37.6898C88.286 37.6177 88.3382 37.5753 88.3731 37.5536C88.4328 37.5166 88.4445 37.5361 88.3542 37.5361V38.9765C88.6011 38.9765 88.885 38.9312 89.1327 38.7775C89.4083 38.6064 89.6189 38.3055 89.6189 37.9193H88.1785ZM88.3542 37.5361H85.1132V38.9765H88.3542V37.5361ZM85.1132 37.5361C85.0453 37.5361 85.0651 37.5201 85.1267 37.5597C85.1617 37.5822 85.2117 37.6245 85.2527 37.6943C85.2954 37.7667 85.3149 37.8464 85.3149 37.9193H83.8745C83.8745 38.302 84.0812 38.6 84.3478 38.7714C84.5909 38.9277 84.87 38.9765 85.1132 38.9765V37.5361ZM85.3149 37.9193V37.8155H83.8745V37.9193H85.3149ZM85.3149 37.8155C85.3149 37.9846 85.2109 38.0727 85.2286 38.0572C85.2823 38.0099 85.3186 37.9959 85.5102 37.8632C85.6578 37.761 85.8687 37.6023 86.0377 37.361C86.2177 37.1042 86.3261 36.7897 86.3261 36.4154H84.8857C84.8857 36.495 84.8677 36.5207 84.858 36.5345C84.8374 36.5639 84.7955 36.6061 84.6903 36.6789C84.6292 36.7212 84.4127 36.8563 84.2768 36.976C84.1048 37.1274 83.8745 37.4002 83.8745 37.8155H85.3149ZM86.3261 36.4154V28.5593H84.8857V36.4154H86.3261ZM86.3261 28.5593C86.3261 28.1547 86.2247 27.8116 86.042 27.5268C85.8653 27.2512 85.64 27.0735 85.4658 26.9553C85.3812 26.898 85.2957 26.8463 85.2395 26.8116C85.1742 26.7714 85.1436 26.7511 85.125 26.7368C85.0849 26.7062 85.2371 26.8081 85.2371 27.0295H83.7967C83.7967 27.4842 84.085 27.7547 84.2491 27.8804C84.3326 27.9444 84.4211 27.9992 84.4834 28.0377C84.5549 28.0817 84.6054 28.1123 84.657 28.1473C84.755 28.2138 84.802 28.2614 84.8294 28.3043C84.8509 28.3378 84.8857 28.4064 84.8857 28.5593H86.3261ZM85.2371 27.0295V26.9517H83.7967V27.0295H85.2371ZM85.2371 26.9517C85.2371 27.0144 85.2225 27.0858 85.188 27.1539C85.1555 27.2183 85.117 27.2567 85.0978 27.2732C85.0804 27.2882 85.075 27.2887 85.0957 27.2777C85.1156 27.2671 85.148 27.252 85.1992 27.2315L84.6643 25.8941C84.5216 25.9512 84.3232 26.0389 84.1563 26.183C83.959 26.3535 83.7967 26.6124 83.7967 26.9517H85.2371ZM85.2434 27.2121L87.188 26.2787L86.5647 24.9801L84.6201 25.9135L85.2434 27.2121ZM87.2118 26.2667C87.2751 26.2334 87.2833 26.2422 87.2455 26.2447C87.1982 26.2479 87.1102 26.2379 87.0209 26.1775C86.9364 26.1205 86.9003 26.0519 86.8882 26.0214C86.8772 25.9934 86.8821 25.989 86.8821 26.0183H88.3225C88.3225 25.7196 88.2358 25.26 87.8273 24.984C87.3865 24.6862 86.8899 24.8084 86.5409 24.9921L87.2118 26.2667ZM86.8821 26.0183V27.9111H88.3225V26.0183H86.8821ZM88.2419 28.2423C88.8662 27.0366 90.1188 26.2459 91.6471 26.2459V24.8055C89.5973 24.8055 87.8423 25.8815 86.9628 27.5799L88.2419 28.2423ZM91.6471 26.2459C92.7492 26.2459 93.7165 26.6124 94.4431 27.3791C95.177 28.1535 95.7325 29.4078 95.8547 31.3021L97.2921 31.2094C97.1551 29.0849 96.5178 27.4742 95.4886 26.3882C94.4521 25.2946 93.0859 24.8055 91.6471 24.8055V26.2459ZM95.8543 31.2959L96.1395 36.4037L97.5777 36.3234L97.2925 31.2156L95.8543 31.2959ZM99.9238 26.6147L99.6051 25.9688L99.5893 25.9766L99.574 25.9851L99.9238 26.6147ZM101.92 25.6294L101.611 24.9791L101.602 24.9835L101.92 25.6294ZM101.531 22.6016C101.146 22.6016 100.9 22.4861 100.756 22.3518C100.617 22.2214 100.514 22.0183 100.514 21.7143H99.0739C99.0739 22.3696 99.3086 22.9702 99.7721 23.4037C100.231 23.8334 100.854 24.042 101.531 24.042V22.6016ZM100.514 21.7143C100.514 21.409 100.618 21.1961 100.762 21.0581C100.908 20.9182 101.154 20.801 101.531 20.801V19.3606C100.846 19.3606 100.223 19.5804 99.7661 20.0174C99.3075 20.4564 99.0739 21.0603 99.0739 21.7143H100.514ZM101.531 20.801C101.874 20.801 102.106 20.9123 102.25 21.0527C102.392 21.1922 102.496 21.4084 102.496 21.7143H103.937C103.937 21.0608 103.704 20.4602 103.257 20.0229C102.81 19.5863 102.2 19.3606 101.531 19.3606V20.801ZM102.496 21.7143C102.496 22.0189 102.393 22.2254 102.255 22.3572C102.115 22.4916 101.882 22.6016 101.531 22.6016V24.042C102.192 24.042 102.802 23.8279 103.251 23.3984C103.703 22.9663 103.937 22.369 103.937 21.7143H102.496ZM100.028 37.5102C99.9587 37.5102 99.997 37.4939 100.074 37.5475C100.118 37.5774 100.167 37.6261 100.205 37.6965C100.242 37.7673 100.255 37.8375 100.255 37.8933H98.8147C98.8147 38.238 98.9798 38.5416 99.2546 38.7318C99.5005 38.9021 99.7852 38.9506 100.028 38.9506V37.5102ZM100.255 37.8933V37.7896H98.8147V37.8933H100.255ZM100.255 37.7896C100.255 37.936 100.17 38.0193 100.178 38.0118C100.225 37.9668 100.252 37.9574 100.434 37.8213C100.573 37.7167 100.77 37.5553 100.927 37.313C101.092 37.0576 101.188 36.7509 101.188 36.3895H99.7481C99.7481 36.4818 99.7276 36.5154 99.7177 36.5307C99.6994 36.559 99.6633 36.5986 99.5694 36.669C99.5175 36.7079 99.3114 36.8476 99.1836 36.9694C99.0164 37.1289 98.8147 37.397 98.8147 37.7896H100.255ZM101.188 36.3895V28.663H99.7481V36.3895H101.188ZM101.188 28.663C101.188 27.8865 100.81 27.4074 100.504 27.1095C100.432 27.0402 100.362 26.9778 100.31 26.9315C100.253 26.8802 100.22 26.8504 100.197 26.8262C100.13 26.7577 100.255 26.8513 100.255 27.0554H98.8147C98.8147 27.454 99.0562 27.7194 99.1645 27.8307C99.2285 27.8965 99.2981 27.9587 99.3501 28.0052C99.4078 28.0568 99.4541 28.098 99.4995 28.1422C99.6598 28.2981 99.7481 28.4283 99.7481 28.663H101.188ZM100.255 27.0554V27.0036H98.8147V27.0554H100.255ZM100.255 27.0036C100.255 27.0675 100.24 27.1442 100.201 27.2184C100.165 27.2869 100.124 27.325 100.111 27.3365C100.099 27.346 100.101 27.3426 100.134 27.3226C100.169 27.302 100.207 27.2811 100.274 27.2442L99.574 25.9851C99.4926 26.0303 99.3111 26.1245 99.1731 26.2428C98.9886 26.401 98.8147 26.6517 98.8147 27.0036H100.255ZM100.243 27.2605L102.239 26.2752L101.602 24.9835L99.6051 25.9688L100.243 27.2605ZM102.23 26.2797C102.307 26.2427 102.336 26.2435 102.322 26.2444C102.303 26.2456 102.239 26.2438 102.162 26.1991C101.996 26.1017 102.004 25.9603 102.004 25.9924H103.444C103.444 25.6615 103.322 25.2089 102.89 24.956C102.462 24.7051 101.983 24.8017 101.611 24.9791L102.23 26.2797ZM102.004 25.9924V36.3895H103.444V25.9924H102.004ZM102.004 36.3895C102.004 36.768 102.116 37.085 102.301 37.3421C102.474 37.5828 102.689 37.7407 102.84 37.8421C103.035 37.9737 103.074 37.9891 103.13 38.0371C103.151 38.0555 103.041 37.9661 103.041 37.7896H104.481C104.481 37.3668 104.241 37.0927 104.068 36.9441C103.93 36.8252 103.71 36.6916 103.646 36.6482C103.536 36.5746 103.492 36.5315 103.471 36.5016C103.461 36.488 103.444 36.4647 103.444 36.3895H102.004ZM103.041 37.7896V37.8933H104.481V37.7896H103.041ZM103.041 37.8933C103.041 37.8033 103.068 37.7148 103.115 37.6422C103.159 37.5743 103.208 37.5381 103.235 37.5221C103.281 37.4943 103.284 37.5102 103.217 37.5102V38.9506C103.46 38.9506 103.735 38.9017 103.976 38.7572C104.231 38.604 104.481 38.3118 104.481 37.8933H103.041ZM103.217 37.5102H100.028V38.9506H103.217V37.5102ZM116.133 34.5745L115.527 34.1851L115.5 34.228L115.478 34.2745L116.133 34.5745ZM116.885 34.782L117.591 34.9232L117.594 34.9088L117.596 34.8943L116.885 34.782ZM115.329 30.8928L115.554 31.577L115.557 31.576L115.329 30.8928ZM108.147 33.2522L107.922 32.568L107.276 32.7805L107.451 33.4383L108.147 33.2522ZM107.966 32.3966L107.258 32.5293L107.414 33.3598L108.209 33.0745L107.966 32.3966ZM113.748 30.3224L113.991 31.0003L114.007 30.9947L114.022 30.9883L113.748 30.3224ZM116.739 34.964C116.691 35.0387 116.595 35.0872 116.477 35.062C116.407 35.0474 116.31 35.0014 116.239 34.898C116.165 34.7903 116.17 34.6936 116.174 34.6696L117.596 34.8943C117.639 34.624 117.598 34.3328 117.427 34.0834C117.259 33.8382 117.012 33.7031 116.775 33.6528C116.319 33.5563 115.809 33.7474 115.527 34.1851L116.739 34.964ZM116.179 34.6407C115.932 35.8745 114.504 37.7695 111.622 37.7695V39.2099C115.221 39.2099 117.216 36.8008 117.591 34.9232L116.179 34.6407ZM111.622 37.7695C110.137 37.7695 108.825 37.2084 107.881 36.2171C106.938 35.2259 106.326 33.7644 106.326 31.904H104.886C104.886 34.0883 105.61 35.9197 106.838 37.2101C108.066 38.5005 109.761 39.2099 111.622 39.2099V37.7695ZM106.326 31.904C106.326 28.6221 108.698 26.2459 111.725 26.2459V24.8055C107.856 24.8055 104.886 27.8742 104.886 31.904H106.326ZM111.725 26.2459C114.511 26.2459 115.828 28.0407 115.828 29.363H117.268C117.268 27.1073 115.162 24.8055 111.725 24.8055V26.2459ZM115.828 29.363C115.828 29.6414 115.758 29.7848 115.679 29.8779C115.589 29.9853 115.421 30.103 115.102 30.2095L115.557 31.576C116.015 31.4232 116.457 31.191 116.781 30.8057C117.118 30.4062 117.268 29.9144 117.268 29.363H115.828ZM115.104 30.2085L107.922 32.568L108.372 33.9365L115.554 31.577L115.104 30.2085ZM107.451 33.4383C108.118 35.9298 109.947 37.5505 112.425 37.5505V36.1101C110.703 36.1101 109.369 35.0343 108.843 33.0661L107.451 33.4383ZM112.425 37.5505C114.643 37.5505 116.107 36.3594 116.788 34.8746L115.478 34.2745C115.018 35.2788 114.045 36.1101 112.425 36.1101V37.5505ZM111.336 25.6352C110.02 25.6352 108.946 26.295 108.225 27.3047C107.514 28.3008 107.142 29.6357 107.142 31.0743H108.582C108.582 29.8682 108.897 28.8436 109.398 28.1415C109.889 27.4528 110.552 27.0756 111.336 27.0756V25.6352ZM107.142 31.0743C107.142 31.565 107.169 32.0543 107.258 32.5293L108.674 32.2639C108.607 31.9092 108.582 31.517 108.582 31.0743H107.142ZM108.209 33.0745L113.991 31.0003L113.504 29.6444L107.723 31.7187L108.209 33.0745ZM114.022 30.9883C114.332 30.8605 114.62 30.6673 114.821 30.3683C115.023 30.0684 115.09 29.7346 115.09 29.4149H113.65C113.65 29.4764 113.643 29.5142 113.638 29.5352C113.633 29.5544 113.628 29.5614 113.627 29.5634C113.625 29.5654 113.619 29.5744 113.599 29.5894C113.578 29.6055 113.539 29.6294 113.473 29.6564L114.022 30.9883ZM115.09 29.4149C115.09 28.6159 114.685 27.6902 114.069 26.9768C113.441 26.2498 112.499 25.6352 111.336 25.6352V27.0756C111.963 27.0756 112.538 27.4074 112.979 27.9184C113.432 28.443 113.65 29.0471 113.65 29.4149H115.09ZM123.629 37.7435C122.024 37.7435 120.852 37.3393 120.102 36.8426C119.322 36.3252 119.086 35.779 119.086 35.508H117.646C117.646 36.4555 118.317 37.3873 119.306 38.0431C120.327 38.7196 121.786 39.184 123.629 39.184V37.7435ZM119.086 35.508C119.086 35.4325 119.099 35.3881 119.108 35.3658C119.116 35.3449 119.125 35.3348 119.132 35.3279C119.146 35.3152 119.21 35.2688 119.377 35.2688V33.8284C118.948 33.8284 118.506 33.9506 118.163 34.262C117.811 34.5823 117.646 35.0286 117.646 35.508H119.086ZM119.377 35.2688C119.451 35.2688 119.48 35.2843 119.496 35.2947C119.522 35.3109 119.569 35.3499 119.636 35.4491C119.706 35.5512 119.776 35.6837 119.866 35.8668C119.949 36.0361 120.054 36.2585 120.17 36.4729C120.409 36.9148 120.748 37.4239 121.32 37.8131C121.898 38.2065 122.647 38.4321 123.629 38.4321V36.9916C122.875 36.9916 122.424 36.8217 122.13 36.6221C121.83 36.4181 121.625 36.1365 121.437 35.7875C121.339 35.6066 121.258 35.4335 121.159 35.2322C121.067 35.0446 120.959 34.8311 120.826 34.6366C120.691 34.4393 120.511 34.2311 120.261 34.0743C120.002 33.9117 119.705 33.8284 119.377 33.8284V35.2688ZM123.629 38.4321C124.564 38.4321 125.465 38.207 126.152 37.7081C126.863 37.1924 127.305 36.409 127.305 35.4302H125.865C125.865 35.9293 125.659 36.2866 125.306 36.5423C124.931 36.8148 124.354 36.9916 123.629 36.9916V38.4321ZM127.305 35.4302C127.305 34.8198 127.143 34.2934 126.831 33.8546C126.525 33.4252 126.108 33.1259 125.67 32.9049C124.829 32.4808 123.719 32.2624 122.785 32.0396C121.784 31.8008 120.926 31.5486 120.312 31.1054C119.758 30.7047 119.371 30.1254 119.371 29.0778H117.931C117.931 30.5842 118.536 31.5994 119.469 32.2731C120.343 32.9043 121.468 33.2063 122.451 33.4407C123.5 33.6911 124.374 33.8648 125.021 34.191C125.327 34.3451 125.529 34.5105 125.658 34.6903C125.779 34.8606 125.865 35.0877 125.865 35.4302H127.305ZM119.371 29.0778C119.371 27.6645 120.856 26.2459 123.526 26.2459V24.8055C120.491 24.8055 117.931 26.4983 117.931 29.0778H119.371ZM123.526 26.2459C125.012 26.2459 126.129 26.6296 126.852 27.1248C127.594 27.632 127.861 28.2016 127.861 28.5852H129.302C129.302 27.5687 128.649 26.6085 127.666 25.936C126.665 25.2515 125.254 24.8055 123.526 24.8055V26.2459ZM127.861 28.5852C127.861 28.6451 127.84 28.6856 127.81 28.7142C127.778 28.7447 127.725 28.7724 127.648 28.7724V30.2129C128.538 30.2129 129.302 29.5279 129.302 28.5852H127.861ZM127.648 28.7724C127.614 28.7724 127.571 28.7893 127.445 28.6C127.375 28.4951 127.305 28.3599 127.215 28.1765C127.132 28.006 127.03 27.7855 126.916 27.5724C126.684 27.1367 126.357 26.6299 125.816 26.2397C125.265 25.8414 124.554 25.6092 123.629 25.6092V27.0497C124.299 27.0497 124.703 27.2129 124.973 27.4077C125.254 27.6106 125.456 27.8947 125.645 28.2497C125.742 28.432 125.823 28.6069 125.92 28.8071C126.012 28.9944 126.118 29.2052 126.245 29.3968C126.513 29.8007 126.943 30.2129 127.648 30.2129V28.7724ZM123.629 25.6092C121.852 25.6092 120.238 26.7769 120.238 28.5852H121.679C121.679 27.8007 122.399 27.0497 123.629 27.0497V25.6092ZM120.238 28.5852C120.238 29.1887 120.402 29.7089 120.716 30.1415C121.022 30.5638 121.439 30.8568 121.874 31.0729C122.709 31.4872 123.815 31.7047 124.743 31.9298C125.737 32.1711 126.592 32.4304 127.202 32.8829C127.757 33.2936 128.146 33.8905 128.146 34.9635H129.587C129.587 33.4436 128.988 32.4135 128.06 31.7256C127.188 31.0793 126.065 30.7683 125.083 30.5299C124.033 30.2753 123.162 30.1039 122.514 29.7825C122.209 29.6308 122.007 29.4692 121.881 29.2955C121.763 29.1322 121.679 28.9151 121.679 28.5852H120.238ZM128.146 34.9635C128.146 35.6602 127.791 36.3299 127.042 36.8518C126.283 37.3801 125.128 37.7435 123.629 37.7435V39.184C125.345 39.184 126.809 38.7695 127.865 38.0338C128.931 37.2918 129.587 36.2114 129.587 34.9635H128.146Z" fill="#4F5D80" mask="url(#path-2-outside-1_136_12318)"/>
</svg>
