<svg width="194" height="109" viewBox="0 0 194 109" fill="none" xmlns="http://www.w3.org/2000/svg">
<path d="M176.964 1H1V107.707H176.964V1Z" fill="white" stroke="#4F5D80" stroke-linecap="round" stroke-linejoin="round"/>
<path d="M102.407 15.0205H6.98633V23.357H102.407V15.0205Z" stroke="#4F5D80" stroke-linecap="round" stroke-linejoin="round"/>
<path d="M102.407 28.082H6.98633V76.2437H102.407V28.082Z" stroke="#4F5D80" stroke-linecap="round" stroke-linejoin="round"/>
<path d="M172.439 62.9004H107.814V101.264H172.439V62.9004Z" stroke="#4F5D80" stroke-linecap="round" stroke-linejoin="round"/>
<path d="M107.814 101.264L172.439 62.9004" stroke="#4F5D80" stroke-linecap="round" stroke-linejoin="round"/>
<path d="M172.439 101.264L107.814 62.9004" stroke="#4F5D80" stroke-linecap="round" stroke-linejoin="round"/>
<path d="M85.6836 83.5596H101.32" stroke="#4F5D80" stroke-linecap="round" stroke-linejoin="round"/>
<path d="M57.9443 83.5596H82.4356" stroke="#4F5D80" stroke-linecap="round" stroke-linejoin="round"/>
<path d="M20.1709 83.5596H53.2192" stroke="#4F5D80" stroke-linecap="round" stroke-linejoin="round"/>
<path d="M7.48438 83.5596H16.3339" stroke="#4F5D80" stroke-linecap="round" stroke-linejoin="round"/>
<path d="M30.498 87.9814H101.32" stroke="#4F5D80" stroke-linecap="round" stroke-linejoin="round"/>
<path d="M7.48438 87.9814H26.9584" stroke="#4F5D80" stroke-linecap="round" stroke-linejoin="round"/>
<path d="M67.9741 92.4092H101.32" stroke="#4F5D80" stroke-linecap="round" stroke-linejoin="round"/>
<path d="M34.9258 92.4092H63.2544" stroke="#4F5D80" stroke-linecap="round" stroke-linejoin="round"/>
<path d="M7.48438 92.4092H31.6781" stroke="#4F5D80" stroke-linecap="round" stroke-linejoin="round"/>
<path d="M62.6641 96.8359H101.32" stroke="#4F5D80" stroke-linecap="round" stroke-linejoin="round"/>
<path d="M31.0884 96.8359H58.827" stroke="#4F5D80" stroke-linecap="round" stroke-linejoin="round"/>
<path d="M7.48438 96.8359H27.8459" stroke="#4F5D80" stroke-linecap="round" stroke-linejoin="round"/>
<path d="M84.2056 101.264H101.32" stroke="#4F5D80" stroke-linecap="round" stroke-linejoin="round"/>
<path d="M43.7803 101.264H80.9583" stroke="#4F5D80" stroke-linecap="round" stroke-linejoin="round"/>
<path d="M26.9585 101.264H40.5328" stroke="#4F5D80" stroke-linecap="round" stroke-linejoin="round"/>
<path d="M13.6816 101.264H21.6487" stroke="#4F5D80" stroke-linecap="round" stroke-linejoin="round"/>
<path d="M7.48438 101.264H13.6816" stroke="#4F5D80" stroke-linecap="round" stroke-linejoin="round"/>
<path d="M176.964 1H1V8.6952H176.964V1Z" fill="#FF8D00" stroke="#4F5D80" stroke-linecap="round" stroke-linejoin="round"/>
<path d="M172.998 3.30859H26.2759V6.41232H172.998V3.30859Z" fill="white" stroke="#4F5D80" stroke-linecap="round" stroke-linejoin="round"/>
<path d="M23.2189 3.30859H3.70898V6.41232H23.2189V3.30859Z" fill="white" stroke="#4F5D80" stroke-linecap="round" stroke-linejoin="round"/>
<path d="M187.07 19.4482H120.378V57.4112H187.07V19.4482Z" fill="white" stroke="#4F5D80" stroke-linecap="round" stroke-linejoin="round"/>
<path d="M187.07 50.2285H120.378V57.4107H187.07V50.2285Z" fill="white" stroke="#4F5D80" stroke-linecap="round" stroke-linejoin="round"/>
<path d="M162.501 35.5051L144.951 25.373V45.6371L162.501 35.5051Z" fill="#FF8D00" stroke="#4F5D80" stroke-linecap="round" stroke-linejoin="round"/>
<path d="M122.569 17.457H118.732V21.2944H122.569V17.457Z" fill="white" stroke="#4F5D80" stroke-linecap="round" stroke-linejoin="round"/>
<path d="M188.814 17.457H184.977V21.2944H188.814V17.457Z" fill="white" stroke="#4F5D80" stroke-linecap="round" stroke-linejoin="round"/>
<path d="M122.569 54.7842H118.732V58.6215H122.569V54.7842Z" fill="white" stroke="#4F5D80" stroke-linecap="round" stroke-linejoin="round"/>
<path d="M188.814 54.7842H184.977V58.6215H188.814V54.7842Z" fill="white" stroke="#4F5D80" stroke-linecap="round" stroke-linejoin="round"/>
<path d="M40.6761 50.6799V57.349H39.019V42.5127H40.6761V49.1819H44.3236V42.5127H45.9755V57.3593H44.3236V50.6901L40.6761 50.6799Z" fill="#4F5D80"/>
<path d="M49.813 57.3593V44.021H47.0786V42.5127H54.1838V44.021H51.4495V57.3593H49.813Z" fill="#4F5D80"/>
<path d="M60.7763 57.3395H59.186L56.7287 45.5402V57.3754H55.2871V42.5134H57.5957L60.0376 54.3538L62.3923 42.498H64.7009V57.3447H63.1311V45.4222L60.7763 57.3395Z" fill="#4F5D80"/>
<path d="M66.3989 57.3593V42.5127H68.0508V55.851H72.3088V57.3593H66.3989Z" fill="#4F5D80"/>
<path d="M178.092 55.6355L181.637 71.5389C181.67 71.6439 181.733 71.7368 181.819 71.8061C181.904 71.8753 182.008 71.9178 182.118 71.9282C182.227 71.9386 182.338 71.9165 182.435 71.8646C182.532 71.8127 182.611 71.7333 182.663 71.6364L184.961 66.7987C185.007 66.7013 185.079 66.6193 185.17 66.5628C185.262 66.5063 185.367 66.4777 185.474 66.4806L190.82 66.773C190.933 66.7782 191.046 66.7488 191.142 66.6888C191.238 66.6287 191.314 66.5408 191.359 66.4367C191.404 66.3326 191.416 66.2173 191.394 66.106C191.372 65.9948 191.317 65.8928 191.236 65.8137L179.016 55.0866C178.927 55.0038 178.814 54.9519 178.694 54.9388C178.573 54.9257 178.452 54.9521 178.348 55.0141C178.243 55.076 178.162 55.1701 178.116 55.2822C178.07 55.3942 178.062 55.5183 178.092 55.6355Z" fill="#4F5D80"/>
<path d="M192.692 69.7441H187.906V74.5306H192.692V69.7441Z" fill="white" stroke="#4F5D80" stroke-width="0.75" stroke-linecap="round" stroke-linejoin="round"/>
<path d="M188.24 69.3643H187.521V70.0825H188.24V69.3643Z" fill="#4F5D80"/>
<path d="M190.671 69.3643H189.953V70.0825H190.671V69.3643Z" fill="#4F5D80"/>
<path d="M193 69.3643H192.282V70.0825H193V69.3643Z" fill="#4F5D80"/>
<path d="M188.24 71.7852H187.521V72.5034H188.24V71.7852Z" fill="#4F5D80"/>
<path d="M190.671 71.7852H189.953V72.5034H190.671V71.7852Z" fill="#4F5D80"/>
<path d="M193 71.7852H192.282V72.5034H193V71.7852Z" fill="#4F5D80"/>
<path d="M188.24 74.1143H187.521V74.8325H188.24V74.1143Z" fill="#4F5D80"/>
<path d="M190.671 74.1143H189.953V74.8325H190.671V74.1143Z" fill="#4F5D80"/>
<path d="M193 74.1143H192.282V74.8325H193V74.1143Z" fill="#4F5D80"/>
</svg>
