<svg width="195" height="186" viewBox="0 0 195 186" fill="none" xmlns="http://www.w3.org/2000/svg">
<path d="M30.6953 96.3026L25.5983 5.14475L116.817 1.02297L131.791 21.1777L134.944 89.2553L30.6953 96.3026Z" fill="white" stroke="#4F5D80" stroke-width="2"/>
<path d="M0.398926 99.4449C0.712302 101.234 9.73493 185.623 9.73493 185.623L167.846 174.642L194.601 171.051L182.262 92.4723L163.368 87.9414L0.398926 99.4449Z" fill="#FF8D00"/>
<path opacity="0.1" d="M163.368 87.9287L0.398926 99.4453C0.712302 101.234 9.73493 185.624 9.73493 185.624L174.349 174.172L163.368 87.9287Z" fill="#4F5D80"/>
<path d="M119.029 90.3251L30.6953 96.3025L25.5983 5.14475L116.334 1.0448L119.029 90.3251Z" stroke="#4F5D80" stroke-width="2"/>
<path d="M58.2183 2.67674L60.1246 31.3898L64.9559 28.6217L67.6326 31.3898L70.9622 28.6217L76.1068 31.3898V1.86719L58.2183 2.67674Z" fill="#4F5D80"/>
<path d="M95.9657 93.2164L89.7896 23.2812L150.154 39.9163L155.977 88.1893L95.9657 93.2164Z" fill="#FF8D00"/>
<path d="M150.115 39.9294C150.007 40.1084 149.88 40.2749 149.736 40.4255L148.574 41.7966L144.134 46.8628L128.714 64.1638L128.479 64.4249L128.231 64.1768L120.083 55.559L98.5774 32.8392L92.114 25.8927L90.3774 23.9864C90.1622 23.775 89.9737 23.5382 89.8159 23.2812C90.0547 23.462 90.2775 23.663 90.4818 23.8819L92.3099 25.7099L98.9169 32.4998L120.566 55.0889L128.766 63.7198H128.283L143.952 46.5756L148.535 41.6399L149.775 40.3342C149.874 40.1881 149.988 40.0525 150.115 39.9294Z" fill="#4F5D80"/>
<path d="M116.311 52.8816C116.48 52.973 112.172 61.2253 106.701 71.3186C101.23 81.4119 96.6595 89.5205 96.4897 89.4291C96.32 89.3377 100.629 81.0855 106.1 70.9921C111.571 60.8988 116.167 52.7902 116.311 52.8816Z" fill="#4F5D80"/>
<path d="M154.567 88.1886C154.41 88.28 150.232 81.5946 145.231 73.264C140.23 64.9334 136.3 58.0783 136.47 57.9739C136.639 57.8694 140.805 64.5678 145.806 72.9115C150.807 81.2551 154.737 88.0972 154.567 88.1886Z" fill="#4F5D80"/>
<path d="M128.387 90.4868L124.444 45.9482L162.885 56.5508L166.593 87.2878L128.387 90.4868Z" fill="white"/>
<path opacity="0.4" d="M128.387 90.4868L124.444 45.9482L162.885 56.5508L166.593 87.2878L128.387 90.4868Z" fill="white"/>
<path d="M162.885 56.5508C162.611 56.9877 162.291 57.3947 161.932 57.7651C161.214 58.6138 160.274 59.6976 159.138 61.0164L149.345 72.0629L149.11 72.3371L148.862 72.076L143.639 66.5919C138.272 60.9642 133.441 55.8326 129.968 52.0982L125.894 47.6457C125.367 47.1227 124.886 46.5547 124.458 45.9482C125.038 46.4082 125.579 46.9148 126.077 47.4629L130.32 51.7588C133.885 55.4148 138.768 60.4941 144.135 66.1218L149.358 71.619H148.809L158.772 60.7292L161.723 57.6084C162.076 57.2199 162.465 56.8658 162.885 56.5508Z" fill="#4F5D80"/>
<path d="M141.342 64.8037C141.498 64.8951 138.809 70.1703 135.322 76.5553C133.322 80.4937 131.116 84.3248 128.715 88.0327C130.511 84.0135 132.516 80.091 134.722 76.2811C136.724 72.3408 138.933 68.5095 141.342 64.8037Z" fill="#4F5D80"/>
<path d="M165.705 87.2885C163.498 84.2663 161.475 81.1138 159.647 77.8481C157.619 74.6978 155.791 71.4226 154.176 68.042C158.391 74.2272 162.241 80.6537 165.705 87.2885Z" fill="#4F5D80"/>
<path d="M152.884 54.6709V58.2486L158.499 58.9015L158.799 56.1725L152.884 54.6709Z" fill="white"/>
<path d="M133.063 36.5088V41.7317L143.666 43.4814L144.253 39.4859L133.063 36.5088Z" fill="white"/>
<path d="M91.6834 123.036L91.1611 97L70.0474 98.4232L72.3063 124.877L91.6834 123.036Z" fill="white"/>
<path d="M160.537 132.932L125.089 136.295L128.064 167.648L163.512 164.285L160.537 132.932Z" fill="white"/>
<path d="M163.46 164.327C163.416 164.129 163.386 163.928 163.368 163.726C163.368 163.295 163.251 162.734 163.173 162.029C163.016 160.514 162.781 158.359 162.494 155.657C161.932 150.146 161.188 142.364 160.196 133.002L160.509 133.263L125.084 136.671C125.006 136.75 125.659 135.979 125.385 136.306V136.541V136.815V137.337L125.489 138.408L125.685 140.523C125.829 141.92 125.959 143.304 126.09 144.688C126.338 147.443 126.599 150.133 126.847 152.771C127.33 157.994 127.8 163.021 128.218 167.63L127.892 167.369L153.471 165.097L160.731 164.483L162.676 164.34C162.907 164.322 163.138 164.322 163.368 164.34C163.167 164.387 162.961 164.417 162.755 164.431L160.875 164.653L153.693 165.41L127.957 168.022H127.657V167.722C127.2 163.099 126.717 158.111 126.207 152.862C125.964 150.251 125.707 147.557 125.437 144.78C125.306 143.396 125.176 142.012 125.045 140.601C124.98 139.909 124.915 139.204 124.836 138.499L124.745 137.429V136.906V136.632V136.397C124.471 136.723 125.11 135.94 125.058 136.018L160.496 132.715H160.783V133.002C161.619 142.443 162.311 150.303 162.807 155.865C163.029 158.542 163.199 160.671 163.329 162.185C163.329 162.877 163.421 163.426 163.447 163.844C163.463 164.004 163.467 164.166 163.46 164.327Z" fill="#4F5D80"/>
<path d="M157.715 140.484C157.715 140.68 151.539 141.477 143.874 142.286C139.261 142.893 134.62 143.268 129.968 143.409C129.968 143.226 136.144 142.417 143.809 141.607C151.474 140.798 157.702 140.301 157.715 140.484Z" fill="#4F5D80"/>
<path d="M157.507 145.812C156.275 146.255 155.002 146.574 153.707 146.765C151.331 147.235 148.027 147.783 144.358 148.214C140.689 148.645 137.333 148.88 134.918 148.958C133.615 149.075 132.304 149.075 131 148.958C132.292 148.703 133.602 148.555 134.918 148.514C137.32 148.292 140.637 147.992 144.293 147.561C147.949 147.13 151.252 146.66 153.642 146.255C154.917 146.012 156.209 145.863 157.507 145.812Z" fill="#4F5D80"/>
<path d="M159.007 157.458C157.77 157.898 156.493 158.217 155.195 158.411C152.818 158.881 149.515 159.43 145.845 159.861C142.176 160.291 138.834 160.526 136.405 160.605C135.102 160.731 133.79 160.731 132.488 160.605C133.779 160.35 135.089 160.201 136.405 160.161C138.808 159.952 142.137 159.639 145.793 159.208C149.449 158.777 152.753 158.307 155.142 157.902C156.418 157.657 157.71 157.509 159.007 157.458Z" fill="#4F5D80"/>
<path d="M157.22 151.491C152.958 152.455 148.647 153.187 144.306 153.685C139.983 154.419 135.625 154.925 131.249 155.199C135.513 154.251 139.823 153.519 144.162 153.006C148.486 152.28 152.844 151.774 157.22 151.491Z" fill="#4F5D80"/>
</svg>
