<svg width="237" height="160" viewBox="0 0 237 160" fill="none" xmlns="http://www.w3.org/2000/svg">
<path d="M80.7515 103.518C86.5446 104.711 91.5993 105.725 96.7271 108.825C103.518 112.938 110.074 119.859 112.37 122.318C114.91 125.028 117.36 127.819 119.762 130.65C119.859 130.764 119.664 130.942 119.559 130.829C114.055 124.62 108.155 118.774 101.895 113.328C98.951 110.691 95.6178 108.523 92.0131 106.902C88.359 105.467 84.5886 104.349 80.7434 103.559C80.7434 103.559 80.7028 103.51 80.7515 103.518Z" fill="#263238"/>
<path d="M54.8184 153.461H49.2524V157.096H54.8184V153.461Z" fill="#4F5D80"/>
<path d="M62.0317 153.218H56.4658V156.853H62.0317V153.218Z" fill="#4F5D80"/>
<path d="M69.2524 152.975H63.6865V156.609H69.2524V152.975Z" fill="#4F5D80"/>
<path d="M76.4736 152.739H70.9077V156.374H76.4736V152.739Z" fill="#4F5D80"/>
<path d="M83.6948 152.495H78.1289V156.13H83.6948V152.495Z" fill="#4F5D80"/>
<path d="M90.916 152.26H85.3501V155.895H90.916V152.26Z" fill="#4F5D80"/>
<path d="M98.1367 152.017H92.5708V155.651H98.1367V152.017Z" fill="#4F5D80"/>
<path d="M105.358 151.773H99.792V155.408H105.358V151.773Z" fill="#4F5D80"/>
<path d="M112.571 151.538H107.005V155.173H112.571V151.538Z" fill="#4F5D80"/>
<path d="M113.942 159.181H47.8813V154.759L113.942 152.917V159.181Z" fill="#4F5D80"/>
<path d="M178.285 137.912H69.2383L86.577 56.7275H195.623L178.285 137.912Z" fill="#C67A00"/>
<path d="M182.317 137.912H73.271L90.6097 56.7275H199.656L182.317 137.912Z" fill="#FF8D00"/>
<path d="M143.376 97.1753C146.334 94.4413 146.839 90.176 144.504 87.6485C142.168 85.121 137.876 85.2884 134.918 88.0224C131.959 90.7563 131.454 95.0216 133.79 97.5491C136.125 100.077 140.417 99.9093 143.376 97.1753Z" fill="#C67A00"/>
<path d="M151.477 159.112H97.8467V154.942L151.477 153.214V159.112Z" fill="#4F5D80"/>
<path d="M166.057 159.104H137.262L119.916 113.611H148.711L166.057 159.104Z" fill="#4F5D80"/>
<path d="M170.796 159.104H142.001L124.662 113.611H153.457L170.796 159.104Z" fill="#4F5D80"/>
<path d="M236.535 46.0569C235.74 53.6033 232.863 60.7803 228.227 66.7874C223.59 72.7944 217.376 77.3953 210.277 80.0768C203.179 82.7582 195.475 83.4149 188.025 81.9734C180.574 80.532 173.671 77.0491 168.085 71.9134L147.56 74.9712L157.816 57.26C155.253 51.0202 154.286 44.2402 155.001 37.5327C155.527 32.1546 157.111 26.9335 159.663 22.1702C162.214 17.4068 165.683 13.1954 169.869 9.77828C174.056 6.36118 178.876 3.80597 184.054 2.2598C189.232 0.713622 194.665 0.207016 200.039 0.769178C205.414 1.33134 210.624 2.95116 215.37 5.53534C220.115 8.11952 224.303 11.617 227.692 15.8264C231.08 20.0358 233.602 24.8739 235.113 30.0622C236.624 35.2505 237.093 40.6864 236.495 46.0569H236.535Z" fill="white"/>
<path d="M236.535 46.0573C235.748 53.6102 232.886 60.7982 228.268 66.8264C227.121 68.3257 225.883 69.7536 224.561 71.102C223.19 72.4034 221.745 73.6232 220.231 74.7552C217.216 77.0498 213.891 78.904 210.354 80.262C206.819 81.6467 203.107 82.5303 199.327 82.8869C197.433 83.065 195.529 83.1011 193.63 82.9952C191.728 82.9509 189.833 82.7563 187.961 82.4133C180.397 81.0254 173.37 77.5584 167.666 72.4009L168.153 72.5497L147.681 75.7023L146.207 75.9729L146.951 74.6199L157.153 56.8545V57.5581C154.759 51.7383 153.724 45.4492 154.127 39.1692C154.53 32.8892 156.36 26.7839 159.478 21.3178C162.596 15.8516 166.919 11.1687 172.12 7.62526C177.32 4.08184 183.26 1.7713 189.488 0.86947C195.716 -0.0323586 202.068 0.498278 208.06 2.42099C214.052 4.34371 219.526 7.60785 224.066 11.965C228.607 16.3222 232.093 21.6577 234.261 27.5654C236.429 33.4732 237.221 39.7975 236.576 46.0573H236.535ZM236.535 46.0573C237.178 39.891 236.399 33.6595 234.259 27.8408C232.119 22.0222 228.674 16.771 224.19 12.4903C219.705 8.20953 214.3 5.0129 208.388 3.14564C202.476 1.27838 196.215 0.790093 190.085 1.71828C184.007 2.62492 178.217 4.91135 173.159 8.40228C168.157 11.9223 163.975 16.4826 160.901 21.7703C157.875 27.085 156.09 33.0146 155.678 39.1162C155.3 45.2298 156.294 51.3506 158.587 57.0304L158.736 57.3957L158.533 57.7204L148.223 75.4046L147.492 74.3222L168.004 71.4538H168.288L168.491 71.6432C173.966 76.7683 180.759 80.2681 188.11 81.7504C189.944 82.1188 191.803 82.345 193.671 82.4269C195.536 82.5554 197.408 82.5554 199.273 82.4269C203.016 82.1411 206.701 81.3304 210.219 80.0185C213.754 78.7405 217.082 76.9488 220.096 74.701C221.606 73.5789 223.051 72.3728 224.426 71.0884C225.751 69.7542 226.994 68.3398 228.146 66.8534C232.815 60.8325 235.72 53.6327 236.535 46.0573Z" fill="#4F5D80"/>
<path d="M218.634 43.04C218.637 44.0227 218.348 44.9841 217.804 45.8025C217.26 46.6208 216.486 47.2594 215.578 47.6373C214.671 48.0152 213.672 48.1155 212.708 47.9254C211.744 47.7353 210.858 47.2635 210.162 46.5696C209.467 45.8757 208.992 44.9909 208.8 44.0273C208.607 43.0637 208.704 42.0646 209.08 41.1564C209.455 40.2483 210.092 39.4719 210.909 38.9257C211.725 38.3795 212.686 38.0879 213.669 38.0879C214.32 38.0861 214.966 38.2129 215.568 38.461C216.17 38.709 216.718 39.0735 217.179 39.5336C217.64 39.9936 218.006 40.5401 218.256 41.1418C218.506 41.7435 218.634 42.3886 218.634 43.04Z" fill="#FF8D00"/>
<path d="M200.856 43.04C200.858 44.0233 200.569 44.9852 200.024 45.8039C199.48 46.6225 198.704 47.2611 197.796 47.6386C196.889 48.0161 195.889 48.1156 194.925 47.9244C193.96 47.7333 193.074 47.2601 192.379 46.5648C191.683 45.8695 191.21 44.9835 191.019 44.019C190.828 43.0545 190.927 42.0549 191.305 41.147C191.682 40.2391 192.321 39.4637 193.14 38.9191C193.958 38.3745 194.92 38.0852 195.903 38.0879C197.217 38.0879 198.476 38.6097 199.405 39.5384C200.334 40.4671 200.856 41.7266 200.856 43.04Z" fill="#FF8D00"/>
<path d="M183.09 43.04C183.093 44.0227 182.804 44.9841 182.26 45.8024C181.716 46.6208 180.942 47.2594 180.034 47.6373C179.127 48.0152 178.129 48.1155 177.164 47.9254C176.2 47.7353 175.314 47.2635 174.618 46.5696C173.923 45.8756 173.448 44.9909 173.256 44.0273C173.063 43.0637 173.16 42.0645 173.536 41.1564C173.911 40.2483 174.548 39.4719 175.365 38.9257C176.182 38.3795 177.142 38.0879 178.125 38.0879C179.439 38.0879 180.7 38.6092 181.631 39.5375C182.562 40.4658 183.087 41.7254 183.09 43.04Z" fill="#FF8D00"/>
<path d="M0.454957 100.058C1.25091 107.604 4.1269 114.781 8.76233 120.788C13.3978 126.796 19.6105 131.398 26.708 134.082C33.8055 136.766 41.5089 137.426 48.9595 135.988C56.4102 134.551 63.3152 131.073 68.905 125.941L89.39 128.945L79.1475 111.234C81.4964 105.467 82.4997 99.2396 82.0811 93.0263C81.6625 86.8131 79.833 80.777 76.7316 75.3768C73.6303 69.9766 69.3387 65.3545 64.1831 61.8617C59.0275 58.3688 53.1435 56.0972 46.9783 55.2195C40.8131 54.3418 34.529 54.8811 28.6034 56.7963C22.6779 58.7116 17.2669 61.9524 12.7818 66.2725C8.29659 70.5926 4.85526 75.8783 2.71929 81.7279C0.583326 87.5775 -0.191088 93.837 0.454957 100.031V100.058Z" fill="white"/>
<path d="M12.7137 66.2186C17.1756 61.8182 22.5892 58.5023 28.5364 56.5269C34.4836 54.5515 40.8053 53.9696 47.0132 54.826C53.2648 55.6505 59.2446 57.8953 64.4945 61.3883C72.4475 66.697 78.3208 74.5917 81.1195 83.735C83.9182 92.8783 83.4702 102.708 79.8514 111.559V110.855L90.0262 128.648L90.7704 130.001L89.2956 129.771L68.8106 126.632L69.2977 126.483C63.5937 131.64 56.5659 135.107 49.0022 136.495C47.1307 136.838 45.2351 137.033 43.333 137.077C41.4385 137.176 39.5394 137.14 37.6502 136.969C30.0619 136.245 22.822 133.435 16.7323 128.851C15.2188 127.719 13.7731 126.499 12.4026 125.197C11.0842 123.846 9.84623 122.418 8.69522 120.922C2.56189 112.908 -0.419338 102.924 0.316292 92.8593C1.05192 82.7949 5.45333 73.3498 12.6867 66.3133L12.7137 66.2186ZM8.84408 120.732C9.99679 122.214 11.2394 123.624 12.5649 124.954C13.9324 126.246 15.3784 127.453 16.8946 128.566C19.9074 130.826 23.2412 132.623 26.7853 133.897C30.3003 135.203 33.9797 136.014 37.7179 136.306C39.5874 136.434 41.4635 136.434 43.333 136.306C45.1967 136.223 47.0514 135.997 48.8804 135.629C56.2316 134.147 63.0249 130.647 68.4994 125.522L68.7024 125.333H68.9865L89.4985 128.201L88.7679 129.284L78.4578 111.599L78.2548 111.261L78.4037 110.896C80.7005 105.238 81.6856 99.1337 81.2849 93.0408C80.8842 86.9479 79.108 81.025 76.0899 75.7169C73.0192 70.4264 68.8368 65.8654 63.8314 62.3489C58.7773 58.8603 52.9921 56.574 46.9185 55.6649C38.8904 54.4254 30.6751 55.628 23.3392 59.1167C16.0033 62.6053 9.88561 68.2189 5.7805 75.2285C1.6754 82.2381 -0.227538 90.32 0.318769 98.4248C0.865076 106.53 3.83541 114.283 8.84408 120.678V120.732Z" fill="#263238"/>
<path d="M47.9767 102.707C47.7008 108.695 51.7414 113.742 56.999 113.985C62.2566 114.229 66.7353 109.555 67.003 103.567C67.2708 97.5795 63.2302 92.5329 57.9807 92.2976C52.7313 92.0623 48.2445 96.7195 47.9767 102.707Z" fill="#FF8D00"/>
<path d="M66.0383 103.899C66.3396 97.2381 61.8446 91.6239 55.9984 91.3595C50.1522 91.095 45.1686 96.2804 44.8673 102.941C44.566 109.602 49.0611 115.216 54.9073 115.481C60.7535 115.745 65.737 110.56 66.0383 103.899Z" fill="#4F5D80"/>
<path d="M24.9422 104.428C24.9422 104.428 20.7313 95.5029 16.7637 96.8335C12.7962 98.1641 14.995 110.513 18.9706 112.833C19.4611 113.166 20.0139 113.396 20.5957 113.51C21.1775 113.624 21.7762 113.619 22.356 113.495C22.9358 113.372 23.4846 113.132 23.9694 112.791C24.4543 112.45 24.8652 112.015 25.1775 111.511L24.9422 104.428Z" fill="#AD6359"/>
<path d="M17.478 100.347C17.413 100.347 17.3806 100.428 17.478 100.46C20.2528 102.18 21.3481 105.223 21.9485 108.282C21.2589 107.024 20.1473 106.213 18.4921 107.008C18.475 107.019 18.4619 107.036 18.4547 107.055C18.4474 107.074 18.4464 107.095 18.4518 107.115C18.4572 107.135 18.4688 107.152 18.4847 107.165C18.5007 107.178 18.5203 107.185 18.5408 107.186C19.0949 107.111 19.6586 107.209 20.1552 107.466C20.6518 107.723 21.057 108.127 21.3157 108.623C21.7362 109.456 22.068 110.332 22.3055 111.235C22.4029 111.527 22.9059 111.462 22.8572 111.138C22.861 111.114 22.861 111.089 22.8572 111.065C23.5388 107.276 21.5023 101.442 17.478 100.347Z" fill="#263238"/>
<path d="M34.1185 122.399L26.1266 118.951L19.7007 110.951L20.9339 109.953L27.1165 117.653L34.7513 120.947L34.1185 122.399Z" fill="#4F5D80"/>
<path d="M33.2667 121.126C34.0781 118.797 40.5689 119.657 39.3925 123.178C38.216 126.7 32.4797 123.438 33.2667 121.126Z" fill="#37474F"/>
<path d="M16.6421 96.5901C16.6421 96.5901 15.774 83.5029 19.6036 76.3062C23.8713 68.2657 41.5588 60.6146 53.6805 69.2555C53.6805 69.2555 33.9889 65.7342 24.8125 76.8823C20.9504 81.5719 21.0478 96.9552 21.0478 96.9552L16.6421 96.5901Z" fill="#4F5D80"/>
<path d="M18.4278 115.386C24.2797 115.328 28.9698 109.876 28.9035 103.208C28.8371 96.5408 24.0395 91.183 18.1876 91.2413C12.3357 91.2995 7.64557 96.7517 7.7119 103.419C7.77823 110.086 12.5759 115.444 18.4278 115.386Z" fill="#4F5D80"/>
<path d="M25.8102 102.862C25.867 108.858 21.656 113.759 16.3984 113.808C11.1409 113.856 6.82445 109.045 6.76766 103.049C6.71086 97.0531 10.9218 92.1526 16.1794 92.1039C21.437 92.0552 25.7534 96.8665 25.8102 102.862Z" fill="#FF8D00"/>
</svg>
