<svg width="171" height="72" viewBox="0 0 171 72" fill="none" xmlns="http://www.w3.org/2000/svg">
<path d="M132.589 38.8213H131.525V54.0133H132.589V38.8213Z" fill="white"/>
<path d="M64.7982 38.8213V53.223L52.7483 38.8213H51.3682L64.0723 54.0133H64.7982H65.3296H65.8614V38.8213H64.7982Z" fill="white"/>
<path d="M55.4668 53.8847H56.794L47.3369 39.9304L46.6734 38.9512L36.5527 53.8847H37.8799L42.58 46.9497H50.7671L55.4673 53.8847H55.4668ZM43.3004 45.8861L46.6734 40.9093L50.0463 45.8861H43.3008H43.3004Z" fill="white"/>
<path d="M86.7452 53.8847H88.0723L78.6153 39.9304L77.9517 38.9512L67.8311 53.8847H69.1582L73.8583 46.9497H82.0454L86.7456 53.8847H86.7452ZM74.5787 45.8861L77.9517 40.9093L81.3247 45.8861H74.5791H74.5787Z" fill="white"/>
<path d="M128.639 38.6699H115.396V39.7335H121.65V54.014H122.714V39.7335H128.639V38.6699Z" fill="white"/>
<path d="M91.2222 52.9506V38.8223H90.1586V52.9506H90.1582V54.0142H98.5148V52.9506H91.2222Z" fill="white"/>
<path d="M150.554 48.3159C149.737 51.0101 147.231 52.9771 144.274 52.9771C140.656 52.9771 137.713 50.0342 137.713 46.4167C137.713 42.7992 140.656 39.8564 144.274 39.8564C147.231 39.8564 149.737 41.8234 150.554 44.5175H151.629C150.784 41.245 147.807 38.8203 144.274 38.8203C140.085 38.8203 136.678 42.228 136.678 46.4163C136.678 50.6046 140.085 54.0123 144.274 54.0123C147.807 54.0123 150.784 51.5876 151.629 48.3151H150.554V48.3159Z" fill="white"/>
<path d="M170.108 46.7977C170.108 46.5024 170.09 46.2108 170.057 45.9244H156.01C156.438 42.7184 159.19 40.2378 162.512 40.2378C165.013 40.2378 167.191 41.645 168.298 43.7091H169.451C168.265 41.0556 165.601 39.2021 162.512 39.2021C158.619 39.2021 155.401 42.1463 154.966 45.9248H154.966V45.9337C154.933 46.2176 154.916 46.5057 154.916 46.7981C154.916 46.8481 154.917 46.8977 154.918 46.9477L154.916 46.988H169.069C168.969 50.5177 166.066 53.3585 162.512 53.3585C159.743 53.3585 157.37 51.6343 156.408 49.2037H155.307C156.315 52.2169 159.164 54.3945 162.512 54.3945C166.637 54.3945 170.005 51.0894 170.105 46.9884H170.108L170.106 46.9481C170.107 46.8981 170.108 46.8486 170.108 46.7981L170.108 46.7977Z" fill="white"/>
<path d="M113.845 38.6699H112.405L106.844 45.251L101.284 38.6699H99.8438L106.3 46.3358V46.7468V50.5855V54.014H107.364V47.5981L107.383 46.3176L113.845 38.6699Z" fill="white"/>
<path d="M1.06359 18.084H0V33.2759H1.06359V18.084Z" fill="white"/>
<path d="M16.18 18.084V32.4861L4.13012 18.084H2.75L15.4546 33.2764H16.18H16.7114H17.2432V18.084H16.18Z" fill="white"/>
<path d="M32.7006 18.084V32.4861L20.6506 18.084H19.2705L31.9751 33.2764H32.7006H33.2324H33.7641V18.084H32.7006Z" fill="white"/>
<path d="M71.6094 18.2139H70.2823L61.4888 31.1888L52.6953 18.2139H51.3682L61.4888 33.1469L62.1524 32.1681L71.6094 18.2139Z" fill="white"/>
<path d="M84.9854 33.1464H86.3126L76.8555 19.1922L76.1919 18.2129L66.0713 33.1464H67.3984L72.0986 26.2114H80.2857L84.9858 33.1464H84.9854ZM72.8189 25.1478L76.1919 20.171L79.5649 25.1478H72.8194H72.8189Z" fill="white"/>
<path d="M46.7155 18.9721C46.796 18.9721 46.8502 19.0136 46.8773 19.0687L47.6041 18.575L39.2225 6.23145L38.3428 6.82892L46.6095 19.0034C46.6375 18.9844 46.6727 18.9725 46.7155 18.9725V18.9721Z" fill="white"/>
<path d="M30.8418 51.5372L29.9619 52.1348L38.3443 64.4784L39.2242 63.8809L30.8418 51.5372Z" fill="white"/>
<path d="M46.4238 32C46.2234 32.1598 45.934 32.164 45.6928 32.2161C45.6704 32.2208 45.6496 32.222 45.6297 32.2203L33.1611 50.6209L34.0417 51.2175L46.8624 32.297L46.4238 32Z" fill="white"/>
<path d="M34.5469 53.0416C34.8637 51.0904 33.5386 49.2518 31.5873 48.935C29.6361 48.6183 27.7975 49.9434 27.4807 51.8946C27.164 53.8459 28.4891 55.6845 30.4403 56.0012C32.3916 56.318 34.2302 54.9929 34.5469 53.0416Z" fill="#F36623"/>
<path d="M44.2029 33.3649C39.8537 33.3649 36.3154 29.8266 36.3154 25.4774C36.3154 21.1281 39.8537 17.5898 44.2029 17.5898C48.5522 17.5898 52.0905 21.1281 52.0905 25.4774C52.0905 29.8266 48.5522 33.3649 44.2029 33.3649ZM44.2029 18.6539C40.4401 18.6539 37.379 21.715 37.379 25.4778C37.379 29.2406 40.4401 32.3017 44.2029 32.3017C47.9658 32.3017 51.0269 29.2406 51.0269 25.4778C51.0269 21.715 47.9658 18.6539 44.2029 18.6539Z" fill="#F36623"/>
<path d="M40.422 7.5925C41.8198 6.19468 41.8198 3.92837 40.422 2.53055C39.0242 1.13273 36.7579 1.13273 35.3601 2.53055C33.9623 3.92837 33.9623 6.19468 35.3601 7.5925C36.7579 8.99032 39.0242 8.99032 40.422 7.5925Z" fill="#F36623"/>
<path d="M43.3439 69.4685C44.7417 68.0707 44.7417 65.8043 43.3439 64.4065C41.9461 63.0087 39.6798 63.0087 38.282 64.4065C36.8841 65.8043 36.8841 68.0707 38.282 69.4685C39.6798 70.8663 41.9461 70.8663 43.3439 69.4685Z" fill="#F36623"/>
</svg>
