<svg width="67" height="43" viewBox="0 0 67 43" fill="none" xmlns="http://www.w3.org/2000/svg">
<path d="M36.1142 27.26C36.1142 16.62 48.9076 0.15333 57.1409 0.15333C58.1542 0.15333 60.6876 1.16667 56.0009 4.45999C52.5809 6.61333 44.9809 13.4533 44.9809 18.0133C45.7409 17.76 48.1476 16.7467 52.4542 16.7467C59.6742 16.7467 66.6409 20.9267 66.6409 28.6533C66.6409 36.8867 59.4209 42.3333 51.5676 42.3333C43.0809 42.3333 36.1142 35.8733 36.1142 27.26ZM0.140886 27.26C0.140886 16.62 12.9342 0.15333 21.1676 0.15333C22.1809 0.15333 24.7142 1.16667 20.0276 4.45999C16.6076 6.61333 9.00755 13.4533 9.00755 18.0133C9.76755 17.76 12.1742 16.7467 16.4809 16.7467C23.7009 16.7467 30.6676 20.9267 30.6676 28.6533C30.6676 36.8867 23.4476 42.3333 15.5942 42.3333C7.10755 42.3333 0.140886 35.8733 0.140886 27.26Z" fill="#FF8D00"/>
</svg>
