<svg width="18" height="19" viewBox="0 0 18 19" fill="none" xmlns="http://www.w3.org/2000/svg">
<path fill-rule="evenodd" clip-rule="evenodd" d="M17.0303 1.40914C17.2341 1.61287 17.3031 1.9153 17.2079 2.18724L11.9579 17.1872C11.8563 17.4775 11.5878 17.6763 11.2806 17.6889C10.9733 17.7014 10.6895 17.5251 10.5646 17.2441L7.6818 10.7577L1.1954 7.87483C0.91439 7.74994 0.738092 7.46616 0.750627 7.1589C0.763163 6.85164 0.961991 6.58317 1.25224 6.48158L16.2522 1.23158C16.5242 1.1364 16.8266 1.20542 17.0303 1.40914ZM9.14456 10.3556L11.1671 14.9062L14.7064 4.79374L9.14456 10.3556ZM13.6457 3.73308L3.53331 7.27243L8.0839 9.29491L13.6457 3.73308Z" fill="white"/>
</svg>
